<?xml version="1.0" encoding="UTF-8" standalone="no"?>
<svg width="1311px" height="267px" viewBox="0 0 1311 267" version="1.1" xmlns="http://www.w3.org/2000/svg" xmlns:xlink="http://www.w3.org/1999/xlink" xmlns:sketch="http://www.bohemiancoding.com/sketch/ns">
    <title>Slice 1</title>
    <description>Created with Sketch (http://www.bohemiancoding.com/sketch)</description>
    <defs></defs>
    <g id="Page-1" stroke="none" stroke-width="1" fill="none" fill-rule="evenodd" sketch:type="MSPage">
        <g id="sprite-social" sketch:type="MSLayerGroup">
            <g id="Page-1" sketch:type="MSShapeGroup">
                <g id="icon-earth" fill="#000000">
                    <path d="M64.8701562,11.1299922 C72.0472578,18.3072422 76,27.8499922 76,38.0001484 C76,48.1503047 72.0472578,57.6929063 64.8701562,64.8701562 C57.6927578,72.0472578 48.1501563,76 38,76 C27.8498438,76 18.3072422,72.0472578 11.1298438,64.8701562 C3.95274219,57.6929063 0,48.1503047 0,38.0001484 C0,27.8499922 3.95244531,18.3072422 11.1298438,11.1299922 C18.3072422,3.95274219 27.8498438,0 38,0 C48.1501563,0 57.6927578,3.95274219 64.8701562,11.1299922 L64.8701562,11.1299922 L64.8701562,11.1299922 Z M60.9948446,61.334683 C65.6389748,56.6896384 68.7269112,50.9037366 70,44.6091339 C69.0076594,46.0702679 68.0584769,46.6122634 67.4706142,43.3417277 C66.8652232,38.0094286 61.9684784,41.4156473 58.8893799,39.521683 C55.6485491,41.7063125 48.3645603,35.2742589 49.6024451,42.528808 C51.5124466,45.8009643 59.9138312,38.1496786 55.7261747,45.0731964 C53.0546472,49.9065179 45.9572838,60.6105982 46.8805421,66.1591652 C46.9970541,74.2429866 38.6220356,67.844817 35.7364855,65.1632723 C33.7954043,59.791933 35.0749742,50.4035804 29.9994108,47.7730089 C24.490352,47.5337589 19.7619679,47.0330134 17.6268965,40.8732098 C16.3420239,36.4662366 18.9941081,29.9055714 23.7160112,28.8927366 C30.6279275,24.5492589 33.0969215,33.9793036 39.5791722,34.1546161 C41.5918397,32.0483616 47.0777729,31.3786384 47.5326263,29.0167812 C43.2794226,28.2661786 52.9287082,25.4399643 47.1254971,23.8323929 C43.9239947,24.2089464 41.8612461,27.1525759 43.5632641,29.6484955 C37.3592576,31.0953393 37.1605538,20.6689598 31.1969362,23.9576161 C31.0453675,29.1573259 21.4589778,25.6434152 27.8801002,24.5890357 C30.0863161,23.6249643 24.2816321,20.8311607 27.4175873,21.3388304 C28.9580203,21.2551518 34.1440566,19.4375 32.7406098,18.2154687 C35.6283694,16.422567 38.0550891,22.5091518 40.8815731,18.0768393 C42.9222271,14.6688527 40.025777,14.0396429 37.4679629,15.7671339 C36.0259243,14.1521964 40.0139932,10.6642143 43.5315952,9.15696875 C44.7039328,8.65460268 45.8236854,8.38087946 46.6797761,8.45837054 C48.4516129,10.5055491 51.7283842,10.8601518 51.899838,8.21219643 C47.5117101,6.11036161 42.6734423,5 37.6641626,5 C30.474444,5 23.6363235,7.28525 17.9773162,11.5108705 C19.4981588,12.2077009 20.3614671,13.0752768 18.8963028,14.1844598 C17.7579909,17.5768304 13.1391958,22.130683 9.08454853,21.4860045 C6.97923111,25.117183 5.59272352,29.1176964 5,33.3106116 C8.3960819,34.4343795 9.17911327,36.6584911 8.44940345,37.4024643 C6.71895714,38.911625 5.65547209,41.0508795 5.10752688,43.3927009 C6.2129916,50.1574063 9.39181028,56.3920491 14.3334806,61.334683 C20.5653263,67.5674107 28.8509353,71 37.6641626,71 C46.4772426,71 54.762999,67.5674107 60.9948446,61.334683 L60.9948446,61.334683 L60.9948446,61.334683 Z" id="Shape"></path>
                </g>
                <g id="linkedin" transform="translate(941.000000, 2.000000)" fill="#000000">
                    <path d="M63.234375,0 L12.765625,0 C5.74453125,0 0,5.74453125 0,12.765625 L0,63.234375 C0,70.2554688 5.74453125,76 12.765625,76 L63.234375,76 C70.2554688,76 76,70.2554688 76,63.234375 L76,12.765625 C76,5.74453125 70.2554688,0 63.234375,0 L63.234375,0 L63.234375,0 Z M29,62 L19,62 L19,29 L29,29 L29,62 L29,62 Z M24,24 C21.2385937,24 19,21.7614063 19,19 C19,16.2385937 21.2385937,14 24,14 C26.7614063,14 29,16.2385937 29,19 C29,21.7614063 26.7614063,24 24,24 L24,24 L24,24 Z M62,62 L52.3333333,62 L52.3333333,43.1428571 C52.3333333,40.5392455 50.1693594,38.4285714 47.5,38.4285714 C44.8306406,38.4285714 42.6666667,40.5392455 42.6666667,43.1428571 L42.6666667,62 L33,62 L33,29 L42.6666667,29 L42.6666667,34.8539643 C44.6602656,32.1827321 47.7078333,29 51.125,29 C57.1311719,29 62,34.2766116 62,40.7857143 L62,62 L62,62 Z" id="Shape"></path>
                </g>
                <g id="feed3" transform="translate(128.000000, 2.000000)" fill="#000000">
                    <path d="M63.3338281,0 L12.6681016,0 C5.70074219,0 0,5.70089062 0,12.66825 L0,63.3320469 C0,70.3037109 5.70089062,76 12.66825,76 L63.3338281,76 C70.3011875,76 76,70.3038594 76,63.3320469 L76,12.66825 C76,5.70089062 70.3011875,0 63.3338281,0 L63.3338281,0 L63.3338281,0 Z M20.4956668,62 C16.9117836,62 14,59.0998847 14,55.5068958 C14,51.9327952 16.9116342,49 20.4956668,49 C24.0935955,49 27,51.9327952 27,55.5068958 C26.9998506,59.0998847 24.0934461,62 20.4956668,62 L20.4956668,62 L20.4956668,62 Z M36.665411,62 C36.665411,55.9295453 34.3044864,50.215408 30.0253105,45.9394513 C25.7415326,41.6542935 20.0513539,39.2890348 14,39.2890348 L14,30 C31.6395393,30 46,44.3537574 46,61.9998516 L36.665411,62 L36.665411,62 Z M52.7689763,60.9997061 C52.7689763,39.6109322 35.3715437,22.2038849 14,22.2038849 L14,13 C40.4648164,13 62,34.5403006 62,61 L52.7689763,60.9997061 L52.7689763,60.9997061 Z" id="Shape"></path>
                </g>
                <g id="flickr3" transform="translate(266.000000, 2.000000)" fill="#000000">
                    <path d="M63.3365,0 L12.66825,0 C5.70089062,0 0,5.70089062 0,12.6678047 L0,63.3314531 C0,70.3037109 5.70089062,76 12.66825,76 L63.3360547,76 C70.3032656,76 76,70.3034141 76,63.3311562 L76,12.6678047 C76,5.70089062 70.3032656,0 63.3365,0 L63.3365,0 L63.3365,0 Z M22,50 C15.37255,50 10,44.62745 10,38 C10,31.37255 15.37255,26 22,26 C28.62745,26 34,31.37255 34,38 C34,44.62745 28.62745,50 22,50 L22,50 L22,50 Z M55,50 C48.3724,50 43,44.62745 43,38 C43,31.37255 48.3724,26 55,26 C61.6276,26 67,31.37255 67,38 C67,44.62745 61.6276,50 55,50 L55,50 L55,50 Z" id="Shape"></path>
                </g>
                <g id="tumblr2" transform="translate(398.000000, 2.000000)" fill="#000000">
                    <path d="M63.3367721,0 L12.6681263,0 C5.70060488,0 0,5.70103906 0,12.6681016 L0,63.33175 C0,70.3037109 5.70060488,76 12.6681263,76 L63.3367721,76 C70.3036998,76 76,70.3037109 76,63.33175 L76,12.6679531 C75.9994062,5.70103906 70.3031061,0 63.3367721,0 L63.3367721,0 L63.3367721,0 Z M54,61.1671124 C51.7574982,62.2111952 49.7214565,62.9470866 47.9013946,63.3702241 C46.0795478,63.7889463 44.1113345,64 41.9960109,64 C39.5928629,64 38.1750115,63.7013753 36.3296628,63.1030956 C34.4846115,62.5005477 32.9084939,61.6407322 31.6069622,60.536895 C30.301117,59.4236385 29.3991183,58.241061 28.8948678,56.99034 C28.3903198,55.7390303 28.1395332,53.9222616 28.1395332,51.5444493 L28.1395332,33.3089131 L21,33.3089131 L21,25.9451421 C23.0634111,25.2828399 25.4576343,24.3310379 26.926357,23.0935629 C28.401922,21.851967 29.5828202,20.3664966 30.4727704,18.6278795 C31.3655467,16.8936778 31.9788284,14.6815883 32.3136567,12 L39.788167,12 L39.788167,24.0275563 L51.9386714,24.0275563 L51.9386714,33.3090602 L39.7877208,33.3090602 L39.7877208,46.6425294 C39.7877208,49.6596842 39.7484517,51.3983012 40.071529,52.2537014 C40.3922264,53.1043919 41.1964986,53.9874615 42.0723178,54.4981702 C43.2367052,55.188142 44.5641187,55.5328335 46.060657,55.5328335 C48.7221776,55.5328335 51.3692699,54.6772861 54,52.9663386 L54,61.1671124 L54,61.1671124 Z" id="Shape"></path>
                </g>
                <g id="github3" transform="translate(528.000000, 2.000000)" fill="#000000">
                    <path d="M38,0 C17.0131641,0 0,17.0131641 0,38 C0,58.9868359 17.0131641,76 38,76 C58.9868359,76 76,58.9868359 76,38 C76,17.0131641 58.9868359,0 38,0 L38,0 L38,0 Z M60.6274233,60.0368688 C57.6865488,62.9458034 54.2637395,65.2290182 50.4538047,66.8230578 C49.4859163,67.2279354 48.5029953,67.5833442 47.5068279,67.8898733 L47.5068279,62.2411693 C47.5068279,59.2720183 46.4773209,57.0881826 44.4184558,55.6895147 C45.7084279,55.5668737 46.8928744,55.3950584 47.9719442,55.1742161 C49.051014,54.9533738 50.1921488,54.6343303 51.3952,54.2172328 C52.5982512,53.8001354 53.6773209,53.3032402 54.6324093,52.7265474 C55.5874977,52.1498546 56.5052279,51.4014937 57.3858977,50.4813175 C58.2665674,49.5611413 59.0045023,48.518324 59.5998512,47.3527184 C60.1952,46.1871128 60.6665674,44.788445 61.0138047,43.1567149 C61.3610419,41.5249849 61.5347349,39.7274759 61.5347349,37.7644824 C61.5347349,33.9611365 60.2819721,30.7221163 57.7765953,28.0474217 C58.9177302,25.1028579 58.7936,21.9006447 57.4045023,18.4407822 L56.4742698,18.3303611 C55.8293581,18.256747 54.6696186,18.5266162 52.9952,19.1401161 C51.3207814,19.753616 49.4417116,20.7596262 47.3579907,22.1582941 C44.4061023,21.348539 41.3424372,20.9436615 38.167293,20.9436615 C34.967293,20.9436615 31.9161302,21.348539 29.0138047,22.1582941 C27.6991256,21.2749249 26.452614,20.5449675 25.2742698,19.9682747 C24.0959256,19.3915819 23.1533395,18.9990715 22.4463628,18.7904492 C21.739386,18.5818268 21.0819721,18.4530021 20.4742698,18.4039752 C19.8665674,18.3549482 19.4758698,18.342581 19.3021767,18.3671681 C19.1284837,18.3917552 19.0045023,18.4161951 18.9300837,18.4407822 C17.540986,21.9252318 17.4168558,25.127445 18.5579907,28.0474217 C16.052614,30.7221163 14.7998512,33.9611365 14.7998512,37.7644824 C14.7998512,39.7274759 14.9735442,41.5249849 15.3207814,43.1567149 C15.6680186,44.788445 16.139386,46.1871128 16.7347349,47.3527184 C17.3300837,48.518324 18.0680186,49.5611413 18.9486884,50.4813175 C19.8293581,51.4014937 20.7470884,52.1498546 21.7021767,52.7265474 C22.6572651,53.3032402 23.7363349,53.8001354 24.939386,54.2172328 C26.1424372,54.6343303 27.2835721,54.9533738 28.3626419,55.1742161 C29.4417116,55.3950584 30.6261581,55.5668737 31.9161302,55.6895147 C29.8819721,57.0635955 28.8649674,59.2475785 28.8649674,62.2411693 L28.8649674,68 C27.7413953,67.6691783 26.6338977,67.2782874 25.5458977,66.8230578 C21.7361116,65.2290182 18.3133023,62.9458034 15.3724279,60.0368688 C12.4317023,57.1277869 10.123386,53.7419802 8.51207442,49.973233 C6.84524651,46.0747777 6,41.9300096 6,37.6540612 C6,33.3781129 6.84524651,29.2333448 8.51222326,25.3347423 C10.1236837,21.5661423 12.4318512,18.1803355 15.3725767,15.2712537 C18.3133023,12.3621719 21.7362605,10.0789571 25.5460465,8.48506465 C29.4872558,6.8361089 33.6773209,6 38,6 C42.3226791,6 46.5127442,6.8361089 50.4539535,8.48506465 C54.2638884,10.0791043 57.6866977,12.3623191 60.6275721,15.2712537 C63.5682977,18.1801883 65.8764651,21.5661423 67.4879256,25.3347423 C69.1547535,29.2333448 70,33.3781129 70,37.6540612 C70,41.9300096 69.1547535,46.0747777 67.4877767,49.9733802 C65.8763163,53.7419802 63.5681488,57.1279342 60.6274233,60.0368688 L60.6274233,60.0368688 L60.6274233,60.0368688 Z" id="Shape"></path>
                </g>
                <g id="youtube" transform="translate(658.000000, 11.000000)" fill="#000000">
                    <path d="M61.75,0 L14.25,0 C6.4125,0 0,6.4125 0,14.25 L0,42.75 C0,50.5875 6.4125,57 14.25,57 L61.75,57 C69.5875,57 76,50.5875 76,42.75 L76,14.25 C76,6.4125 69.5875,0 61.75,0 L61.75,0 L61.75,0 Z M29,48 L29,10 L53,29 L29,48 L29,48 Z" id="Shape"></path>
                </g>
                <g id="twitter2" transform="translate(797.000000, 2.000000)" fill="#000000">
                    <path d="M63.3339766,0 L12.6681016,0 C5.70089062,0 0,5.70074219 0,12.6683984 L0,63.33175 C0,70.3037109 5.70089062,76 12.6681016,76 L63.3339766,76 C70.3013359,76 76,70.3037109 76,63.3316016 L76,12.6683984 C76,5.70074219 70.3013359,0 63.3339766,0 L63.3339766,0 L63.3339766,0 Z M62.7553701,25.4526248 C62.7797702,25.993992 62.7918214,26.5386036 62.7918214,27.0857221 C62.7918214,43.7657595 50.2037712,63 27.1842492,63 C20.1168613,63 13.5385159,60.9097417 8,57.3284009 C8.978978,57.4454931 9.97521457,57.5049241 10.9852878,57.5049241 C16.8488899,57.5049241 22.2448738,55.4867792 26.5279769,52.1014278 C21.0516513,51.9996726 16.429923,48.3500526 14.837224,43.3355857 C15.6015112,43.483057 16.3854375,43.5622491 17.1918297,43.5622491 C18.3332764,43.5622491 19.4388669,43.4076992 20.4888134,43.1192453 C14.7637263,41.959236 10.4498255,36.8579084 10.4498255,30.7422732 C10.4498255,30.6890361 10.4498255,30.6362414 10.4510157,30.5835941 C12.1381906,31.5288852 14.0681758,32.0966497 16.1195661,32.1622745 C12.7614336,29.8987374 10.5520379,26.0354315 10.5520379,21.6558285 C10.5520379,19.342741 11.1690321,17.1743229 12.246503,15.3102855 C18.4189742,22.9470873 27.6405601,27.9721722 38.0416806,28.4987922 C37.8281801,27.574737 37.7174871,26.6114544 37.7174871,25.6220694 C37.7174871,18.651248 43.3210203,13 50.2321884,13 C53.8319411,13 57.0848856,14.5326693 59.3674814,16.986002 C62.2181225,16.4200071 64.8964754,15.3697165 67.3147593,13.9228755 C66.3802668,16.870532 64.3961254,19.3440683 61.8123971,20.9063793 C64.3436057,20.6012612 66.7557896,19.9227457 69,18.9189085 C67.3227935,21.4498111 65.200881,23.6730886 62.7553701,25.4526248 L62.7553701,25.4526248 L62.7553701,25.4526248 Z" id="Shape"></path>
                </g>
                <g id="google-plus3" transform="translate(1088.000000, 2.000000)" fill="#000000">
                    <path d="M0.04334375,65 C0.025234375,64.668152 0.009796875,64.3355177 0,64 C0.0096484375,64.3355177 0.025234375,64.668152 0.04334375,65 L0.04334375,65 L0.04334375,65 Z M17.626474,41.9957551 C24.427099,42.197991 28.9892312,35.148835 27.816103,26.2483855 C26.6413488,17.3494132 20.1739182,10.2077811 13.3731454,10.0043634 C6.57133775,9.80271834 2.00994472,16.6137412 3.18425545,25.5155202 C4.35812271,34.4136062 10.8231881,41.7929282 17.626474,41.9957551 L17.626474,41.9957551 L17.626474,41.9957551 Z M76,19 L76,12.6683984 C76,5.70074219 70.3006569,0 63.3324673,0 L12.6605553,0 C5.81112984,0 0.189428819,5.50940625 0,12.3148203 C4.33207081,8.50101563 10.3416852,5.31480469 16.5434007,5.31480469 L43.0607631,5.31480469 L37.1264155,10.3333281 L28.7188044,10.3333281 C34.2955235,12.471125 37.2665571,18.9519063 37.2665571,25.6017578 C37.2665571,31.1865703 34.1631015,35.9889687 29.7778837,39.4040703 C25.4991083,42.7366406 24.6879492,44.1323984 24.6879492,46.9653281 C24.6879492,49.3832266 29.2712061,53.4965781 31.6677182,55.187875 C38.673467,60.1262422 40.9399323,64.7110312 40.9399323,72.36625 C40.9399323,73.5855156 40.7883596,74.8028516 40.4896677,76 L63.3326158,76 C70.3006569,76 76,70.3037109 76,63.3316016 L76,23.7501484 L61.748302,23.7501484 L61.748302,38 L56.9977361,38 L56.9977361,23.75 L42.7461866,23.75 L42.7461866,19 L56.9977361,19 L56.9977361,4.75 L61.748302,4.75 L61.748302,19 L76,19 L76,19 Z M14.251495,56.9794625 C15.9085957,56.9794625 17.4272341,56.9355918 19,56.9355918 C16.9187723,54.9774698 15.2719452,52.5782609 15.2719452,49.6203322 C15.2719452,47.8649079 15.8518614,46.1749178 16.6622414,44.6740925 C15.8356078,44.7313475 14.9916472,44.7480035 14.1225396,44.7480035 C8.42181889,44.7480035 3.58023904,42.95778 0,40 L0,44.9999256 L0.000460007586,60 C4.09759424,58.1132609 8.96202113,56.9794625 14.251495,56.9794625 L14.251495,56.9794625 L14.251495,56.9794625 Z M0.188664062,65 C0.106132812,64.6718769 0.04275,64.3383432 0,64 C0.0426015625,64.3383432 0.106132812,64.6718769 0.188664062,65 L0.188664062,65 L0.188664062,65 Z M34.6739867,70.6226999 C33.5521612,66.1785715 29.5741431,63.9750226 24.0287878,60.0751688 C22.0119157,59.415268 19.7901677,59.0266732 17.4061581,59.0014319 C10.7295902,58.9285798 4.50956014,61.6420933 1,65.6799428 C2.18604478,71.5523953 7.33505853,76 13.4589832,76 L34.7991472,76 C34.9344397,75.159027 35,74.2896386 35,73.3978807 C35,72.4506524 34.8857165,71.5242822 34.6739867,70.6226999 L34.6739867,70.6226999 L34.6739867,70.6226999 Z" id="Shape"></path>
                </g>
                <g id="facebook2" transform="translate(1233.000000, 2.000000)" fill="#000000">
                    <path d="M63.334125,0 L12.6679531,0 C5.70089062,0 0,5.70103906 0,12.66825 L0,63.3318984 C0,70.3038594 5.70089062,76 12.6679531,76 L63.334125,75.9998516 C70.3014844,75.9998516 76,70.3038594 76,63.3316016 L76,12.66825 C76,5.70103906 70.3013359,0 63.334125,0 L63.334125,0 L63.334125,0 Z M64.1338269,38 L51.8979363,38 L51.8979363,71 L37.7958726,71 L37.7958726,38 L31,38 L31,27.2039911 L37.7958726,27.2039911 L37.7958726,20.1925223 C37.7958726,10.6650982 41.8936973,5 53.06356,5 L65.9349249,5 L65.9349249,16.6803795 L55.4222771,16.6803795 C52.3020486,16.6752232 51.9149763,18.3121116 51.9149763,21.3587188 L51.8979363,27.2039911 L66,27.2039911 L64.1338269,38 L64.1338269,38 Z" id="Shape"></path>
                </g>
                <g id="icon-earth" transform="translate(0.000000, 94.000000)" fill="#CF1B41">
                    <path d="M64.8701562,11.1299922 C72.0472578,18.3072422 76,27.8499922 76,38.0001484 C76,48.1503047 72.0472578,57.6929063 64.8701562,64.8701562 C57.6927578,72.0472578 48.1501563,76 38,76 C27.8498438,76 18.3072422,72.0472578 11.1298438,64.8701562 C3.95274219,57.6929063 0,48.1503047 0,38.0001484 C0,27.8499922 3.95244531,18.3072422 11.1298438,11.1299922 C18.3072422,3.95274219 27.8498438,0 38,0 C48.1501563,0 57.6927578,3.95274219 64.8701562,11.1299922 L64.8701562,11.1299922 L64.8701562,11.1299922 Z M60.9948446,61.334683 C65.6389748,56.6896384 68.7269112,50.9037366 70,44.6091339 C69.0076594,46.0702679 68.0584769,46.6122634 67.4706142,43.3417277 C66.8652232,38.0094286 61.9684784,41.4156473 58.8893799,39.521683 C55.6485491,41.7063125 48.3645603,35.2742589 49.6024451,42.528808 C51.5124466,45.8009643 59.9138312,38.1496786 55.7261747,45.0731964 C53.0546472,49.9065179 45.9572838,60.6105982 46.8805421,66.1591652 C46.9970541,74.2429866 38.6220356,67.844817 35.7364855,65.1632723 C33.7954043,59.791933 35.0749742,50.4035804 29.9994108,47.7730089 C24.490352,47.5337589 19.7619679,47.0330134 17.6268965,40.8732098 C16.3420239,36.4662366 18.9941081,29.9055714 23.7160112,28.8927366 C30.6279275,24.5492589 33.0969215,33.9793036 39.5791722,34.1546161 C41.5918397,32.0483616 47.0777729,31.3786384 47.5326263,29.0167812 C43.2794226,28.2661786 52.9287082,25.4399643 47.1254971,23.8323929 C43.9239947,24.2089464 41.8612461,27.1525759 43.5632641,29.6484955 C37.3592576,31.0953393 37.1605538,20.6689598 31.1969362,23.9576161 C31.0453675,29.1573259 21.4589778,25.6434152 27.8801002,24.5890357 C30.0863161,23.6249643 24.2816321,20.8311607 27.4175873,21.3388304 C28.9580203,21.2551518 34.1440566,19.4375 32.7406098,18.2154687 C35.6283694,16.422567 38.0550891,22.5091518 40.8815731,18.0768393 C42.9222271,14.6688527 40.025777,14.0396429 37.4679629,15.7671339 C36.0259243,14.1521964 40.0139932,10.6642143 43.5315952,9.15696875 C44.7039328,8.65460268 45.8236854,8.38087946 46.6797761,8.45837054 C48.4516129,10.5055491 51.7283842,10.8601518 51.899838,8.21219643 C47.5117101,6.11036161 42.6734423,5 37.6641626,5 C30.474444,5 23.6363235,7.28525 17.9773162,11.5108705 C19.4981588,12.2077009 20.3614671,13.0752768 18.8963028,14.1844598 C17.7579909,17.5768304 13.1391958,22.130683 9.08454853,21.4860045 C6.97923111,25.117183 5.59272352,29.1176964 5,33.3106116 C8.3960819,34.4343795 9.17911327,36.6584911 8.44940345,37.4024643 C6.71895714,38.911625 5.65547209,41.0508795 5.10752688,43.3927009 C6.2129916,50.1574063 9.39181028,56.3920491 14.3334806,61.334683 C20.5653263,67.5674107 28.8509353,71 37.6641626,71 C46.4772426,71 54.762999,67.5674107 60.9948446,61.334683 L60.9948446,61.334683 L60.9948446,61.334683 Z" id="Shape"></path>
                </g>
                <g id="linkedin" transform="translate(941.000000, 96.000000)" fill="#CF1B41">
                    <path d="M63.234375,0 L12.765625,0 C5.74453125,0 0,5.74453125 0,12.765625 L0,63.234375 C0,70.2554688 5.74453125,76 12.765625,76 L63.234375,76 C70.2554688,76 76,70.2554688 76,63.234375 L76,12.765625 C76,5.74453125 70.2554688,0 63.234375,0 L63.234375,0 L63.234375,0 Z M29,62 L19,62 L19,29 L29,29 L29,62 L29,62 Z M24,24 C21.2385937,24 19,21.7614063 19,19 C19,16.2385937 21.2385937,14 24,14 C26.7614063,14 29,16.2385937 29,19 C29,21.7614063 26.7614063,24 24,24 L24,24 L24,24 Z M62,62 L52.3333333,62 L52.3333333,43.1428571 C52.3333333,40.5392455 50.1693594,38.4285714 47.5,38.4285714 C44.8306406,38.4285714 42.6666667,40.5392455 42.6666667,43.1428571 L42.6666667,62 L33,62 L33,29 L42.6666667,29 L42.6666667,34.8539643 C44.6602656,32.1827321 47.7078333,29 51.125,29 C57.1311719,29 62,34.2766116 62,40.7857143 L62,62 L62,62 Z" id="Shape"></path>
                </g>
                <g id="feed3" transform="translate(128.000000, 96.000000)" fill="#CF1B41">
                    <path d="M63.3338281,0 L12.6681016,0 C5.70074219,0 0,5.70089062 0,12.66825 L0,63.3320469 C0,70.3037109 5.70089062,76 12.66825,76 L63.3338281,76 C70.3011875,76 76,70.3038594 76,63.3320469 L76,12.66825 C76,5.70089062 70.3011875,0 63.3338281,0 L63.3338281,0 L63.3338281,0 Z M20.4956668,62 C16.9117836,62 14,59.0998847 14,55.5068958 C14,51.9327952 16.9116342,49 20.4956668,49 C24.0935955,49 27,51.9327952 27,55.5068958 C26.9998506,59.0998847 24.0934461,62 20.4956668,62 L20.4956668,62 L20.4956668,62 Z M36.665411,62 C36.665411,55.9295453 34.3044864,50.215408 30.0253105,45.9394513 C25.7415326,41.6542935 20.0513539,39.2890348 14,39.2890348 L14,30 C31.6395393,30 46,44.3537574 46,61.9998516 L36.665411,62 L36.665411,62 Z M52.7689763,60.9997061 C52.7689763,39.6109322 35.3715437,22.2038849 14,22.2038849 L14,13 C40.4648164,13 62,34.5403006 62,61 L52.7689763,60.9997061 L52.7689763,60.9997061 Z" id="Shape"></path>
                </g>
                <g id="flickr3" transform="translate(266.000000, 96.000000)" fill="#CF1B41">
                    <path d="M63.3365,0 L12.66825,0 C5.70089062,0 0,5.70089062 0,12.6678047 L0,63.3314531 C0,70.3037109 5.70089062,76 12.66825,76 L63.3360547,76 C70.3032656,76 76,70.3034141 76,63.3311562 L76,12.6678047 C76,5.70089062 70.3032656,0 63.3365,0 L63.3365,0 L63.3365,0 Z M22,50 C15.37255,50 10,44.62745 10,38 C10,31.37255 15.37255,26 22,26 C28.62745,26 34,31.37255 34,38 C34,44.62745 28.62745,50 22,50 L22,50 L22,50 Z M55,50 C48.3724,50 43,44.62745 43,38 C43,31.37255 48.3724,26 55,26 C61.6276,26 67,31.37255 67,38 C67,44.62745 61.6276,50 55,50 L55,50 L55,50 Z" id="Shape"></path>
                </g>
                <g id="tumblr2" transform="translate(398.000000, 96.000000)" fill="#CF1B41">
                    <path d="M63.3367721,0 L12.6681263,0 C5.70060488,0 0,5.70103906 0,12.6681016 L0,63.33175 C0,70.3037109 5.70060488,76 12.6681263,76 L63.3367721,76 C70.3036998,76 76,70.3037109 76,63.33175 L76,12.6679531 C75.9994062,5.70103906 70.3031061,0 63.3367721,0 L63.3367721,0 L63.3367721,0 Z M54,61.1671124 C51.7574982,62.2111952 49.7214565,62.9470866 47.9013946,63.3702241 C46.0795478,63.7889463 44.1113345,64 41.9960109,64 C39.5928629,64 38.1750115,63.7013753 36.3296628,63.1030956 C34.4846115,62.5005477 32.9084939,61.6407322 31.6069622,60.536895 C30.301117,59.4236385 29.3991183,58.241061 28.8948678,56.99034 C28.3903198,55.7390303 28.1395332,53.9222616 28.1395332,51.5444493 L28.1395332,33.3089131 L21,33.3089131 L21,25.9451421 C23.0634111,25.2828399 25.4576343,24.3310379 26.926357,23.0935629 C28.401922,21.851967 29.5828202,20.3664966 30.4727704,18.6278795 C31.3655467,16.8936778 31.9788284,14.6815883 32.3136567,12 L39.788167,12 L39.788167,24.0275563 L51.9386714,24.0275563 L51.9386714,33.3090602 L39.7877208,33.3090602 L39.7877208,46.6425294 C39.7877208,49.6596842 39.7484517,51.3983012 40.071529,52.2537014 C40.3922264,53.1043919 41.1964986,53.9874615 42.0723178,54.4981702 C43.2367052,55.188142 44.5641187,55.5328335 46.060657,55.5328335 C48.7221776,55.5328335 51.3692699,54.6772861 54,52.9663386 L54,61.1671124 L54,61.1671124 Z" id="Shape"></path>
                </g>
                <g id="github3" transform="translate(528.000000, 96.000000)" fill="#CF1B41">
                    <path d="M38,0 C17.0131641,0 0,17.0131641 0,38 C0,58.9868359 17.0131641,76 38,76 C58.9868359,76 76,58.9868359 76,38 C76,17.0131641 58.9868359,0 38,0 L38,0 L38,0 Z M60.6274233,60.0368688 C57.6865488,62.9458034 54.2637395,65.2290182 50.4538047,66.8230578 C49.4859163,67.2279354 48.5029953,67.5833442 47.5068279,67.8898733 L47.5068279,62.2411693 C47.5068279,59.2720183 46.4773209,57.0881826 44.4184558,55.6895147 C45.7084279,55.5668737 46.8928744,55.3950584 47.9719442,55.1742161 C49.051014,54.9533738 50.1921488,54.6343303 51.3952,54.2172328 C52.5982512,53.8001354 53.6773209,53.3032402 54.6324093,52.7265474 C55.5874977,52.1498546 56.5052279,51.4014937 57.3858977,50.4813175 C58.2665674,49.5611413 59.0045023,48.518324 59.5998512,47.3527184 C60.1952,46.1871128 60.6665674,44.788445 61.0138047,43.1567149 C61.3610419,41.5249849 61.5347349,39.7274759 61.5347349,37.7644824 C61.5347349,33.9611365 60.2819721,30.7221163 57.7765953,28.0474217 C58.9177302,25.1028579 58.7936,21.9006447 57.4045023,18.4407822 L56.4742698,18.3303611 C55.8293581,18.256747 54.6696186,18.5266162 52.9952,19.1401161 C51.3207814,19.753616 49.4417116,20.7596262 47.3579907,22.1582941 C44.4061023,21.348539 41.3424372,20.9436615 38.167293,20.9436615 C34.967293,20.9436615 31.9161302,21.348539 29.0138047,22.1582941 C27.6991256,21.2749249 26.452614,20.5449675 25.2742698,19.9682747 C24.0959256,19.3915819 23.1533395,18.9990715 22.4463628,18.7904492 C21.739386,18.5818268 21.0819721,18.4530021 20.4742698,18.4039752 C19.8665674,18.3549482 19.4758698,18.342581 19.3021767,18.3671681 C19.1284837,18.3917552 19.0045023,18.4161951 18.9300837,18.4407822 C17.540986,21.9252318 17.4168558,25.127445 18.5579907,28.0474217 C16.052614,30.7221163 14.7998512,33.9611365 14.7998512,37.7644824 C14.7998512,39.7274759 14.9735442,41.5249849 15.3207814,43.1567149 C15.6680186,44.788445 16.139386,46.1871128 16.7347349,47.3527184 C17.3300837,48.518324 18.0680186,49.5611413 18.9486884,50.4813175 C19.8293581,51.4014937 20.7470884,52.1498546 21.7021767,52.7265474 C22.6572651,53.3032402 23.7363349,53.8001354 24.939386,54.2172328 C26.1424372,54.6343303 27.2835721,54.9533738 28.3626419,55.1742161 C29.4417116,55.3950584 30.6261581,55.5668737 31.9161302,55.6895147 C29.8819721,57.0635955 28.8649674,59.2475785 28.8649674,62.2411693 L28.8649674,68 C27.7413953,67.6691783 26.6338977,67.2782874 25.5458977,66.8230578 C21.7361116,65.2290182 18.3133023,62.9458034 15.3724279,60.0368688 C12.4317023,57.1277869 10.123386,53.7419802 8.51207442,49.973233 C6.84524651,46.0747777 6,41.9300096 6,37.6540612 C6,33.3781129 6.84524651,29.2333448 8.51222326,25.3347423 C10.1236837,21.5661423 12.4318512,18.1803355 15.3725767,15.2712537 C18.3133023,12.3621719 21.7362605,10.0789571 25.5460465,8.48506465 C29.4872558,6.8361089 33.6773209,6 38,6 C42.3226791,6 46.5127442,6.8361089 50.4539535,8.48506465 C54.2638884,10.0791043 57.6866977,12.3623191 60.6275721,15.2712537 C63.5682977,18.1801883 65.8764651,21.5661423 67.4879256,25.3347423 C69.1547535,29.2333448 70,33.3781129 70,37.6540612 C70,41.9300096 69.1547535,46.0747777 67.4877767,49.9733802 C65.8763163,53.7419802 63.5681488,57.1279342 60.6274233,60.0368688 L60.6274233,60.0368688 L60.6274233,60.0368688 Z" id="Shape"></path>
                </g>
                <g id="youtube" transform="translate(658.000000, 105.000000)" fill="#CF1B41">
                    <path d="M61.75,0 L14.25,0 C6.4125,0 0,6.4125 0,14.25 L0,42.75 C0,50.5875 6.4125,57 14.25,57 L61.75,57 C69.5875,57 76,50.5875 76,42.75 L76,14.25 C76,6.4125 69.5875,0 61.75,0 L61.75,0 L61.75,0 Z M29,48 L29,10 L53,29 L29,48 L29,48 Z" id="Shape"></path>
                </g>
                <g id="twitter2" transform="translate(797.000000, 96.000000)" fill="#CF1B41">
                    <path d="M63.3339766,0 L12.6681016,0 C5.70089062,0 0,5.70074219 0,12.6683984 L0,63.33175 C0,70.3037109 5.70089062,76 12.6681016,76 L63.3339766,76 C70.3013359,76 76,70.3037109 76,63.3316016 L76,12.6683984 C76,5.70074219 70.3013359,0 63.3339766,0 L63.3339766,0 L63.3339766,0 Z M62.7553701,25.4526248 C62.7797702,25.993992 62.7918214,26.5386036 62.7918214,27.0857221 C62.7918214,43.7657595 50.2037712,63 27.1842492,63 C20.1168613,63 13.5385159,60.9097417 8,57.3284009 C8.978978,57.4454931 9.97521457,57.5049241 10.9852878,57.5049241 C16.8488899,57.5049241 22.2448738,55.4867792 26.5279769,52.1014278 C21.0516513,51.9996726 16.429923,48.3500526 14.837224,43.3355857 C15.6015112,43.483057 16.3854375,43.5622491 17.1918297,43.5622491 C18.3332764,43.5622491 19.4388669,43.4076992 20.4888134,43.1192453 C14.7637263,41.959236 10.4498255,36.8579084 10.4498255,30.7422732 C10.4498255,30.6890361 10.4498255,30.6362414 10.4510157,30.5835941 C12.1381906,31.5288852 14.0681758,32.0966497 16.1195661,32.1622745 C12.7614336,29.8987374 10.5520379,26.0354315 10.5520379,21.6558285 C10.5520379,19.342741 11.1690321,17.1743229 12.246503,15.3102855 C18.4189742,22.9470873 27.6405601,27.9721722 38.0416806,28.4987922 C37.8281801,27.574737 37.7174871,26.6114544 37.7174871,25.6220694 C37.7174871,18.651248 43.3210203,13 50.2321884,13 C53.8319411,13 57.0848856,14.5326693 59.3674814,16.986002 C62.2181225,16.4200071 64.8964754,15.3697165 67.3147593,13.9228755 C66.3802668,16.870532 64.3961254,19.3440683 61.8123971,20.9063793 C64.3436057,20.6012612 66.7557896,19.9227457 69,18.9189085 C67.3227935,21.4498111 65.200881,23.6730886 62.7553701,25.4526248 L62.7553701,25.4526248 L62.7553701,25.4526248 Z" id="Shape"></path>
                </g>
                <g id="google-plus3" transform="translate(1088.000000, 96.000000)" fill="#CF1B41">
                    <path d="M0.04334375,65 C0.025234375,64.668152 0.009796875,64.3355177 0,64 C0.0096484375,64.3355177 0.025234375,64.668152 0.04334375,65 L0.04334375,65 L0.04334375,65 Z M17.626474,41.9957551 C24.427099,42.197991 28.9892312,35.148835 27.816103,26.2483855 C26.6413488,17.3494132 20.1739182,10.2077811 13.3731454,10.0043634 C6.57133775,9.80271834 2.00994472,16.6137412 3.18425545,25.5155202 C4.35812271,34.4136062 10.8231881,41.7929282 17.626474,41.9957551 L17.626474,41.9957551 L17.626474,41.9957551 Z M76,19 L76,12.6683984 C76,5.70074219 70.3006569,0 63.3324673,0 L12.6605553,0 C5.81112984,0 0.189428819,5.50940625 0,12.3148203 C4.33207081,8.50101563 10.3416852,5.31480469 16.5434007,5.31480469 L43.0607631,5.31480469 L37.1264155,10.3333281 L28.7188044,10.3333281 C34.2955235,12.471125 37.2665571,18.9519063 37.2665571,25.6017578 C37.2665571,31.1865703 34.1631015,35.9889687 29.7778837,39.4040703 C25.4991083,42.7366406 24.6879492,44.1323984 24.6879492,46.9653281 C24.6879492,49.3832266 29.2712061,53.4965781 31.6677182,55.187875 C38.673467,60.1262422 40.9399323,64.7110312 40.9399323,72.36625 C40.9399323,73.5855156 40.7883596,74.8028516 40.4896677,76 L63.3326158,76 C70.3006569,76 76,70.3037109 76,63.3316016 L76,23.7501484 L61.748302,23.7501484 L61.748302,38 L56.9977361,38 L56.9977361,23.75 L42.7461866,23.75 L42.7461866,19 L56.9977361,19 L56.9977361,4.75 L61.748302,4.75 L61.748302,19 L76,19 L76,19 Z M14.251495,56.9794625 C15.9085957,56.9794625 17.4272341,56.9355918 19,56.9355918 C16.9187723,54.9774698 15.2719452,52.5782609 15.2719452,49.6203322 C15.2719452,47.8649079 15.8518614,46.1749178 16.6622414,44.6740925 C15.8356078,44.7313475 14.9916472,44.7480035 14.1225396,44.7480035 C8.42181889,44.7480035 3.58023904,42.95778 0,40 L0,44.9999256 L0.000460007586,60 C4.09759424,58.1132609 8.96202113,56.9794625 14.251495,56.9794625 L14.251495,56.9794625 L14.251495,56.9794625 Z M0.188664062,65 C0.106132812,64.6718769 0.04275,64.3383432 0,64 C0.0426015625,64.3383432 0.106132812,64.6718769 0.188664062,65 L0.188664062,65 L0.188664062,65 Z M34.6739867,70.6226999 C33.5521612,66.1785715 29.5741431,63.9750226 24.0287878,60.0751688 C22.0119157,59.415268 19.7901677,59.0266732 17.4061581,59.0014319 C10.7295902,58.9285798 4.50956014,61.6420933 1,65.6799428 C2.18604478,71.5523953 7.33505853,76 13.4589832,76 L34.7991472,76 C34.9344397,75.159027 35,74.2896386 35,73.3978807 C35,72.4506524 34.8857165,71.5242822 34.6739867,70.6226999 L34.6739867,70.6226999 L34.6739867,70.6226999 Z" id="Shape"></path>
                </g>
                <g id="facebook2" transform="translate(1233.000000, 96.000000)" fill="#CF1B41">
                    <path d="M63.334125,0 L12.6679531,0 C5.70089062,0 0,5.70103906 0,12.66825 L0,63.3318984 C0,70.3038594 5.70089062,76 12.6679531,76 L63.334125,75.9998516 C70.3014844,75.9998516 76,70.3038594 76,63.3316016 L76,12.66825 C76,5.70103906 70.3013359,0 63.334125,0 L63.334125,0 L63.334125,0 Z M64.1338269,38 L51.8979363,38 L51.8979363,71 L37.7958726,71 L37.7958726,38 L31,38 L31,27.2039911 L37.7958726,27.2039911 L37.7958726,20.1925223 C37.7958726,10.6650982 41.8936973,5 53.06356,5 L65.9349249,5 L65.9349249,16.6803795 L55.4222771,16.6803795 C52.3020486,16.6752232 51.9149763,18.3121116 51.9149763,21.3587188 L51.8979363,27.2039911 L66,27.2039911 L64.1338269,38 L64.1338269,38 Z" id="Shape"></path>
                </g>
                <g id="icon-earth" transform="translate(0.000000, 188.000000)" fill="#399FD3">
                    <path d="M64.8701562,11.1299922 C72.0472578,18.3072422 76,27.8499922 76,38.0001484 C76,48.1503047 72.0472578,57.6929063 64.8701562,64.8701562 C57.6927578,72.0472578 48.1501563,76 38,76 C27.8498438,76 18.3072422,72.0472578 11.1298438,64.8701562 C3.95274219,57.6929063 0,48.1503047 0,38.0001484 C0,27.8499922 3.95244531,18.3072422 11.1298438,11.1299922 C18.3072422,3.95274219 27.8498438,0 38,0 C48.1501563,0 57.6927578,3.95274219 64.8701562,11.1299922 L64.8701562,11.1299922 L64.8701562,11.1299922 Z M60.9948446,61.334683 C65.6389748,56.6896384 68.7269112,50.9037366 70,44.6091339 C69.0076594,46.0702679 68.0584769,46.6122634 67.4706142,43.3417277 C66.8652232,38.0094286 61.9684784,41.4156473 58.8893799,39.521683 C55.6485491,41.7063125 48.3645603,35.2742589 49.6024451,42.528808 C51.5124466,45.8009643 59.9138312,38.1496786 55.7261747,45.0731964 C53.0546472,49.9065179 45.9572838,60.6105982 46.8805421,66.1591652 C46.9970541,74.2429866 38.6220356,67.844817 35.7364855,65.1632723 C33.7954043,59.791933 35.0749742,50.4035804 29.9994108,47.7730089 C24.490352,47.5337589 19.7619679,47.0330134 17.6268965,40.8732098 C16.3420239,36.4662366 18.9941081,29.9055714 23.7160112,28.8927366 C30.6279275,24.5492589 33.0969215,33.9793036 39.5791722,34.1546161 C41.5918397,32.0483616 47.0777729,31.3786384 47.5326263,29.0167812 C43.2794226,28.2661786 52.9287082,25.4399643 47.1254971,23.8323929 C43.9239947,24.2089464 41.8612461,27.1525759 43.5632641,29.6484955 C37.3592576,31.0953393 37.1605538,20.6689598 31.1969362,23.9576161 C31.0453675,29.1573259 21.4589778,25.6434152 27.8801002,24.5890357 C30.0863161,23.6249643 24.2816321,20.8311607 27.4175873,21.3388304 C28.9580203,21.2551518 34.1440566,19.4375 32.7406098,18.2154687 C35.6283694,16.422567 38.0550891,22.5091518 40.8815731,18.0768393 C42.9222271,14.6688527 40.025777,14.0396429 37.4679629,15.7671339 C36.0259243,14.1521964 40.0139932,10.6642143 43.5315952,9.15696875 C44.7039328,8.65460268 45.8236854,8.38087946 46.6797761,8.45837054 C48.4516129,10.5055491 51.7283842,10.8601518 51.899838,8.21219643 C47.5117101,6.11036161 42.6734423,5 37.6641626,5 C30.474444,5 23.6363235,7.28525 17.9773162,11.5108705 C19.4981588,12.2077009 20.3614671,13.0752768 18.8963028,14.1844598 C17.7579909,17.5768304 13.1391958,22.130683 9.08454853,21.4860045 C6.97923111,25.117183 5.59272352,29.1176964 5,33.3106116 C8.3960819,34.4343795 9.17911327,36.6584911 8.44940345,37.4024643 C6.71895714,38.911625 5.65547209,41.0508795 5.10752688,43.3927009 C6.2129916,50.1574063 9.39181028,56.3920491 14.3334806,61.334683 C20.5653263,67.5674107 28.8509353,71 37.6641626,71 C46.4772426,71 54.762999,67.5674107 60.9948446,61.334683 L60.9948446,61.334683 L60.9948446,61.334683 Z" id="Shape"></path>
                </g>
                <g id="linkedin" transform="translate(941.000000, 190.000000)" fill="#399FD3">
                    <path d="M63.234375,0 L12.765625,0 C5.74453125,0 0,5.74453125 0,12.765625 L0,63.234375 C0,70.2554688 5.74453125,76 12.765625,76 L63.234375,76 C70.2554688,76 76,70.2554688 76,63.234375 L76,12.765625 C76,5.74453125 70.2554688,0 63.234375,0 L63.234375,0 L63.234375,0 Z M29,62 L19,62 L19,29 L29,29 L29,62 L29,62 Z M24,24 C21.2385937,24 19,21.7614063 19,19 C19,16.2385937 21.2385937,14 24,14 C26.7614063,14 29,16.2385937 29,19 C29,21.7614063 26.7614063,24 24,24 L24,24 L24,24 Z M62,62 L52.3333333,62 L52.3333333,43.1428571 C52.3333333,40.5392455 50.1693594,38.4285714 47.5,38.4285714 C44.8306406,38.4285714 42.6666667,40.5392455 42.6666667,43.1428571 L42.6666667,62 L33,62 L33,29 L42.6666667,29 L42.6666667,34.8539643 C44.6602656,32.1827321 47.7078333,29 51.125,29 C57.1311719,29 62,34.2766116 62,40.7857143 L62,62 L62,62 Z" id="Shape"></path>
                </g>
                <g id="feed3" transform="translate(128.000000, 190.000000)" fill="#399FD3">
                    <path d="M63.3338281,0 L12.6681016,0 C5.70074219,0 0,5.70089062 0,12.66825 L0,63.3320469 C0,70.3037109 5.70089062,76 12.66825,76 L63.3338281,76 C70.3011875,76 76,70.3038594 76,63.3320469 L76,12.66825 C76,5.70089062 70.3011875,0 63.3338281,0 L63.3338281,0 L63.3338281,0 Z M20.4956668,62 C16.9117836,62 14,59.0998847 14,55.5068958 C14,51.9327952 16.9116342,49 20.4956668,49 C24.0935955,49 27,51.9327952 27,55.5068958 C26.9998506,59.0998847 24.0934461,62 20.4956668,62 L20.4956668,62 L20.4956668,62 Z M36.665411,62 C36.665411,55.9295453 34.3044864,50.215408 30.0253105,45.9394513 C25.7415326,41.6542935 20.0513539,39.2890348 14,39.2890348 L14,30 C31.6395393,30 46,44.3537574 46,61.9998516 L36.665411,62 L36.665411,62 Z M52.7689763,60.9997061 C52.7689763,39.6109322 35.3715437,22.2038849 14,22.2038849 L14,13 C40.4648164,13 62,34.5403006 62,61 L52.7689763,60.9997061 L52.7689763,60.9997061 Z" id="Shape"></path>
                </g>
                <g id="flickr3" transform="translate(266.000000, 190.000000)" fill="#399FD3">
                    <path d="M63.3365,0 L12.66825,0 C5.70089062,0 0,5.70089062 0,12.6678047 L0,63.3314531 C0,70.3037109 5.70089062,76 12.66825,76 L63.3360547,76 C70.3032656,76 76,70.3034141 76,63.3311562 L76,12.6678047 C76,5.70089062 70.3032656,0 63.3365,0 L63.3365,0 L63.3365,0 Z M22,50 C15.37255,50 10,44.62745 10,38 C10,31.37255 15.37255,26 22,26 C28.62745,26 34,31.37255 34,38 C34,44.62745 28.62745,50 22,50 L22,50 L22,50 Z M55,50 C48.3724,50 43,44.62745 43,38 C43,31.37255 48.3724,26 55,26 C61.6276,26 67,31.37255 67,38 C67,44.62745 61.6276,50 55,50 L55,50 L55,50 Z" id="Shape"></path>
                </g>
                <g id="tumblr2" transform="translate(398.000000, 190.000000)" fill="#399FD3">
                    <path d="M63.3367721,0 L12.6681263,0 C5.70060488,0 0,5.70103906 0,12.6681016 L0,63.33175 C0,70.3037109 5.70060488,76 12.6681263,76 L63.3367721,76 C70.3036998,76 76,70.3037109 76,63.33175 L76,12.6679531 C75.9994062,5.70103906 70.3031061,0 63.3367721,0 L63.3367721,0 L63.3367721,0 Z M54,61.1671124 C51.7574982,62.2111952 49.7214565,62.9470866 47.9013946,63.3702241 C46.0795478,63.7889463 44.1113345,64 41.9960109,64 C39.5928629,64 38.1750115,63.7013753 36.3296628,63.1030956 C34.4846115,62.5005477 32.9084939,61.6407322 31.6069622,60.536895 C30.301117,59.4236385 29.3991183,58.241061 28.8948678,56.99034 C28.3903198,55.7390303 28.1395332,53.9222616 28.1395332,51.5444493 L28.1395332,33.3089131 L21,33.3089131 L21,25.9451421 C23.0634111,25.2828399 25.4576343,24.3310379 26.926357,23.0935629 C28.401922,21.851967 29.5828202,20.3664966 30.4727704,18.6278795 C31.3655467,16.8936778 31.9788284,14.6815883 32.3136567,12 L39.788167,12 L39.788167,24.0275563 L51.9386714,24.0275563 L51.9386714,33.3090602 L39.7877208,33.3090602 L39.7877208,46.6425294 C39.7877208,49.6596842 39.7484517,51.3983012 40.071529,52.2537014 C40.3922264,53.1043919 41.1964986,53.9874615 42.0723178,54.4981702 C43.2367052,55.188142 44.5641187,55.5328335 46.060657,55.5328335 C48.7221776,55.5328335 51.3692699,54.6772861 54,52.9663386 L54,61.1671124 L54,61.1671124 Z" id="Shape"></path>
                </g>
                <g id="github3" transform="translate(528.000000, 190.000000)" fill="#399FD3">
                    <path d="M38,0 C17.0131641,0 0,17.0131641 0,38 C0,58.9868359 17.0131641,76 38,76 C58.9868359,76 76,58.9868359 76,38 C76,17.0131641 58.9868359,0 38,0 L38,0 L38,0 Z M60.6274233,60.0368688 C57.6865488,62.9458034 54.2637395,65.2290182 50.4538047,66.8230578 C49.4859163,67.2279354 48.5029953,67.5833442 47.5068279,67.8898733 L47.5068279,62.2411693 C47.5068279,59.2720183 46.4773209,57.0881826 44.4184558,55.6895147 C45.7084279,55.5668737 46.8928744,55.3950584 47.9719442,55.1742161 C49.051014,54.9533738 50.1921488,54.6343303 51.3952,54.2172328 C52.5982512,53.8001354 53.6773209,53.3032402 54.6324093,52.7265474 C55.5874977,52.1498546 56.5052279,51.4014937 57.3858977,50.4813175 C58.2665674,49.5611413 59.0045023,48.518324 59.5998512,47.3527184 C60.1952,46.1871128 60.6665674,44.788445 61.0138047,43.1567149 C61.3610419,41.5249849 61.5347349,39.7274759 61.5347349,37.7644824 C61.5347349,33.9611365 60.2819721,30.7221163 57.7765953,28.0474217 C58.9177302,25.1028579 58.7936,21.9006447 57.4045023,18.4407822 L56.4742698,18.3303611 C55.8293581,18.256747 54.6696186,18.5266162 52.9952,19.1401161 C51.3207814,19.753616 49.4417116,20.7596262 47.3579907,22.1582941 C44.4061023,21.348539 41.3424372,20.9436615 38.167293,20.9436615 C34.967293,20.9436615 31.9161302,21.348539 29.0138047,22.1582941 C27.6991256,21.2749249 26.452614,20.5449675 25.2742698,19.9682747 C24.0959256,19.3915819 23.1533395,18.9990715 22.4463628,18.7904492 C21.739386,18.5818268 21.0819721,18.4530021 20.4742698,18.4039752 C19.8665674,18.3549482 19.4758698,18.342581 19.3021767,18.3671681 C19.1284837,18.3917552 19.0045023,18.4161951 18.9300837,18.4407822 C17.540986,21.9252318 17.4168558,25.127445 18.5579907,28.0474217 C16.052614,30.7221163 14.7998512,33.9611365 14.7998512,37.7644824 C14.7998512,39.7274759 14.9735442,41.5249849 15.3207814,43.1567149 C15.6680186,44.788445 16.139386,46.1871128 16.7347349,47.3527184 C17.3300837,48.518324 18.0680186,49.5611413 18.9486884,50.4813175 C19.8293581,51.4014937 20.7470884,52.1498546 21.7021767,52.7265474 C22.6572651,53.3032402 23.7363349,53.8001354 24.939386,54.2172328 C26.1424372,54.6343303 27.2835721,54.9533738 28.3626419,55.1742161 C29.4417116,55.3950584 30.6261581,55.5668737 31.9161302,55.6895147 C29.8819721,57.0635955 28.8649674,59.2475785 28.8649674,62.2411693 L28.8649674,68 C27.7413953,67.6691783 26.6338977,67.2782874 25.5458977,66.8230578 C21.7361116,65.2290182 18.3133023,62.9458034 15.3724279,60.0368688 C12.4317023,57.1277869 10.123386,53.7419802 8.51207442,49.973233 C6.84524651,46.0747777 6,41.9300096 6,37.6540612 C6,33.3781129 6.84524651,29.2333448 8.51222326,25.3347423 C10.1236837,21.5661423 12.4318512,18.1803355 15.3725767,15.2712537 C18.3133023,12.3621719 21.7362605,10.0789571 25.5460465,8.48506465 C29.4872558,6.8361089 33.6773209,6 38,6 C42.3226791,6 46.5127442,6.8361089 50.4539535,8.48506465 C54.2638884,10.0791043 57.6866977,12.3623191 60.6275721,15.2712537 C63.5682977,18.1801883 65.8764651,21.5661423 67.4879256,25.3347423 C69.1547535,29.2333448 70,33.3781129 70,37.6540612 C70,41.9300096 69.1547535,46.0747777 67.4877767,49.9733802 C65.8763163,53.7419802 63.5681488,57.1279342 60.6274233,60.0368688 L60.6274233,60.0368688 L60.6274233,60.0368688 Z" id="Shape"></path>
                </g>
                <g id="youtube" transform="translate(658.000000, 199.000000)" fill="#399FD3">
                    <path d="M61.75,0 L14.25,0 C6.4125,0 0,6.4125 0,14.25 L0,42.75 C0,50.5875 6.4125,57 14.25,57 L61.75,57 C69.5875,57 76,50.5875 76,42.75 L76,14.25 C76,6.4125 69.5875,0 61.75,0 L61.75,0 L61.75,0 Z M29,48 L29,10 L53,29 L29,48 L29,48 Z" id="Shape"></path>
                </g>
                <g id="twitter2" transform="translate(797.000000, 190.000000)" fill="#399FD3">
                    <path d="M63.3339766,0 L12.6681016,0 C5.70089062,0 0,5.70074219 0,12.6683984 L0,63.33175 C0,70.3037109 5.70089062,76 12.6681016,76 L63.3339766,76 C70.3013359,76 76,70.3037109 76,63.3316016 L76,12.6683984 C76,5.70074219 70.3013359,0 63.3339766,0 L63.3339766,0 L63.3339766,0 Z M62.7553701,25.4526248 C62.7797702,25.993992 62.7918214,26.5386036 62.7918214,27.0857221 C62.7918214,43.7657595 50.2037712,63 27.1842492,63 C20.1168613,63 13.5385159,60.9097417 8,57.3284009 C8.978978,57.4454931 9.97521457,57.5049241 10.9852878,57.5049241 C16.8488899,57.5049241 22.2448738,55.4867792 26.5279769,52.1014278 C21.0516513,51.9996726 16.429923,48.3500526 14.837224,43.3355857 C15.6015112,43.483057 16.3854375,43.5622491 17.1918297,43.5622491 C18.3332764,43.5622491 19.4388669,43.4076992 20.4888134,43.1192453 C14.7637263,41.959236 10.4498255,36.8579084 10.4498255,30.7422732 C10.4498255,30.6890361 10.4498255,30.6362414 10.4510157,30.5835941 C12.1381906,31.5288852 14.0681758,32.0966497 16.1195661,32.1622745 C12.7614336,29.8987374 10.5520379,26.0354315 10.5520379,21.6558285 C10.5520379,19.342741 11.1690321,17.1743229 12.246503,15.3102855 C18.4189742,22.9470873 27.6405601,27.9721722 38.0416806,28.4987922 C37.8281801,27.574737 37.7174871,26.6114544 37.7174871,25.6220694 C37.7174871,18.651248 43.3210203,13 50.2321884,13 C53.8319411,13 57.0848856,14.5326693 59.3674814,16.986002 C62.2181225,16.4200071 64.8964754,15.3697165 67.3147593,13.9228755 C66.3802668,16.870532 64.3961254,19.3440683 61.8123971,20.9063793 C64.3436057,20.6012612 66.7557896,19.9227457 69,18.9189085 C67.3227935,21.4498111 65.200881,23.6730886 62.7553701,25.4526248 L62.7553701,25.4526248 L62.7553701,25.4526248 Z" id="Shape"></path>
                </g>
                <g id="google-plus3" transform="translate(1088.000000, 190.000000)" fill="#399FD3">
                    <path d="M0.04334375,65 C0.025234375,64.668152 0.009796875,64.3355177 0,64 C0.0096484375,64.3355177 0.025234375,64.668152 0.04334375,65 L0.04334375,65 L0.04334375,65 Z M17.626474,41.9957551 C24.427099,42.197991 28.9892312,35.148835 27.816103,26.2483855 C26.6413488,17.3494132 20.1739182,10.2077811 13.3731454,10.0043634 C6.57133775,9.80271834 2.00994472,16.6137412 3.18425545,25.5155202 C4.35812271,34.4136062 10.8231881,41.7929282 17.626474,41.9957551 L17.626474,41.9957551 L17.626474,41.9957551 Z M76,19 L76,12.6683984 C76,5.70074219 70.3006569,0 63.3324673,0 L12.6605553,0 C5.81112984,0 0.189428819,5.50940625 0,12.3148203 C4.33207081,8.50101563 10.3416852,5.31480469 16.5434007,5.31480469 L43.0607631,5.31480469 L37.1264155,10.3333281 L28.7188044,10.3333281 C34.2955235,12.471125 37.2665571,18.9519063 37.2665571,25.6017578 C37.2665571,31.1865703 34.1631015,35.9889687 29.7778837,39.4040703 C25.4991083,42.7366406 24.6879492,44.1323984 24.6879492,46.9653281 C24.6879492,49.3832266 29.2712061,53.4965781 31.6677182,55.187875 C38.673467,60.1262422 40.9399323,64.7110312 40.9399323,72.36625 C40.9399323,73.5855156 40.7883596,74.8028516 40.4896677,76 L63.3326158,76 C70.3006569,76 76,70.3037109 76,63.3316016 L76,23.7501484 L61.748302,23.7501484 L61.748302,38 L56.9977361,38 L56.9977361,23.75 L42.7461866,23.75 L42.7461866,19 L56.9977361,19 L56.9977361,4.75 L61.748302,4.75 L61.748302,19 L76,19 L76,19 Z M14.251495,56.9794625 C15.9085957,56.9794625 17.4272341,56.9355918 19,56.9355918 C16.9187723,54.9774698 15.2719452,52.5782609 15.2719452,49.6203322 C15.2719452,47.8649079 15.8518614,46.1749178 16.6622414,44.6740925 C15.8356078,44.7313475 14.9916472,44.7480035 14.1225396,44.7480035 C8.42181889,44.7480035 3.58023904,42.95778 0,40 L0,44.9999256 L0.000460007586,60 C4.09759424,58.1132609 8.96202113,56.9794625 14.251495,56.9794625 L14.251495,56.9794625 L14.251495,56.9794625 Z M0.188664062,65 C0.106132812,64.6718769 0.04275,64.3383432 0,64 C0.0426015625,64.3383432 0.106132812,64.6718769 0.188664062,65 L0.188664062,65 L0.188664062,65 Z M34.6739867,70.6226999 C33.5521612,66.1785715 29.5741431,63.9750226 24.0287878,60.0751688 C22.0119157,59.415268 19.7901677,59.0266732 17.4061581,59.0014319 C10.7295902,58.9285798 4.50956014,61.6420933 1,65.6799428 C2.18604478,71.5523953 7.33505853,76 13.4589832,76 L34.7991472,76 C34.9344397,75.159027 35,74.2896386 35,73.3978807 C35,72.4506524 34.8857165,71.5242822 34.6739867,70.6226999 L34.6739867,70.6226999 L34.6739867,70.6226999 Z" id="Shape"></path>
                </g>
                <g id="facebook2" transform="translate(1233.000000, 190.000000)" fill="#399FD3">
                    <path d="M63.334125,0 L12.6679531,0 C5.70089062,0 0,5.70103906 0,12.66825 L0,63.3318984 C0,70.3038594 5.70089062,76 12.6679531,76 L63.334125,75.9998516 C70.3014844,75.9998516 76,70.3038594 76,63.3316016 L76,12.66825 C76,5.70103906 70.3013359,0 63.334125,0 L63.334125,0 L63.334125,0 Z M64.1338269,38 L51.8979363,38 L51.8979363,71 L37.7958726,71 L37.7958726,38 L31,38 L31,27.2039911 L37.7958726,27.2039911 L37.7958726,20.1925223 C37.7958726,10.6650982 41.8936973,5 53.06356,5 L65.9349249,5 L65.9349249,16.6803795 L55.4222771,16.6803795 C52.3020486,16.6752232 51.9149763,18.3121116 51.9149763,21.3587188 L51.8979363,27.2039911 L66,27.2039911 L64.1338269,38 L64.1338269,38 Z" id="Shape"></path>
                </g>
            </g>
        </g>
    </g>
</svg>