<?xml version="1.0" encoding="utf-8"?>
<!-- Generator: Adobe Illustrator 17.0.0, SVG Export Plug-In . SVG Version: 6.00 Build 0)  -->
<!DOCTYPE svg PUBLIC "-//W3C//DTD SVG 1.1//EN" "http://www.w3.org/Graphics/SVG/1.1/DTD/svg11.dtd">
<svg version="1.1" id="Layer_1" xmlns="http://www.w3.org/2000/svg" xmlns:xlink="http://www.w3.org/1999/xlink" x="0px" y="0px"
	 width="595.3px" height="841.9px" viewBox="0 0 595.3 841.9" style="enable-background:new 0 0 595.3 841.9;" xml:space="preserve"
	>
<style type="text/css">
	.st0{opacity:0.3;}
	.st1{fill:#010202;}
	.st2{fill:#FFFFFF;}
</style>
<g class="st0">
	<path class="st1" d="M306.8,444.3l8.8,5.3l-1.7-17.6l-4.5-4.5c0.9-2.4,1.7-5.7,1.8-10.4c0,0,0-0.9,0-1.2
		c0-15.9-10.6-28.8-11.4-28.8c0,0,0,0-0.1,0c0,0-0.1,0-0.1,0c-0.8,0-11.4,13-11.4,28.8c0,0.3,0,1.2,0,1.2c0.1,4.7,0.9,8.1,1.8,10.4
		l-4.4,4.4l-1.7,17.6l8.8-5.3L306.8,444.3z M299.8,400.2c2.2,0,4,1.8,4,4c0,2.2-1.8,4-4,4c-2.2,0-4-1.8-4-4
		C295.8,402,297.6,400.2,299.8,400.2z"/>
	<g>
		<polygon class="st1" points="297.1,450.4 302.4,450.4 306.8,446.9 292.7,446.9 		"/>
	</g>
</g>
<g>
	<path class="st2" d="M303.8,440.2l8.8,5.3l-1.7-17.6l-4.5-4.5c0.9-2.4,1.7-5.7,1.8-10.4c0,0,0-0.9,0-1.2
		c0-15.9-10.6-28.8-11.4-28.8c0,0,0,0-0.1,0c0,0-0.1,0-0.1,0c-0.8,0-11.4,13-11.4,28.8c0,0.3,0,1.2,0,1.2c0.1,4.7,0.9,8.1,1.8,10.4
		l-4.4,4.4l-1.7,17.6l8.8-5.3L303.8,440.2z M296.7,396.1c2.2,0,4,1.8,4,4c0,2.2-1.8,4-4,4c-2.2,0-4-1.8-4-4
		C292.8,397.9,294.5,396.1,296.7,396.1z"/>
	<g>
		<polygon class="st2" points="294.1,446.3 299.4,446.3 303.8,442.8 289.7,442.8 		"/>
	</g>
</g>
</svg>
