<?xml version="1.0" encoding="UTF-8" standalone="no"?>
<svg width="8774px" height="1772px" viewBox="0 0 8774 1772" version="1.1" xmlns="http://www.w3.org/2000/svg" xmlns:xlink="http://www.w3.org/1999/xlink" xmlns:sketch="http://www.bohemiancoding.com/sketch/ns">
    <title>Untitled</title>
    <description>Created with Sketch (http://www.bohemiancoding.com/sketch)</description>
    <defs></defs>
    <g id="Page-1" stroke="none" stroke-width="1" fill="none" fill-rule="evenodd" sketch:type="MSPage">
        <g id="icon-earth" sketch:type="MSLayerGroup" fill="#000000">
            <path d="M437.02,74.981 C485.371,123.333 512,187.621 512,256.001 C512,324.381 485.371,388.668 437.02,437.02 C388.667,485.371 324.38,512 256,512 C187.62,512 123.333,485.371 74.98,437.02 C26.629,388.668 0,324.381 0,256.001 C0,187.621 26.627,123.333 74.98,74.981 C123.333,26.629 187.62,0 256,0 C324.38,0 388.667,26.629 437.02,74.981 L437.02,74.981 Z M414.392,414.393 C445.921,382.863 466.885,343.589 475.528,300.862 C468.791,310.78 462.347,314.459 458.356,292.259 C454.246,256.064 421.002,279.185 400.098,266.329 C378.096,281.158 328.645,237.498 337.049,286.741 C350.016,308.952 407.053,257.016 378.623,304.012 C360.486,336.82 312.302,409.478 318.57,447.141 C319.361,502.013 262.503,458.583 242.913,440.381 C229.735,403.921 238.422,340.194 203.964,322.338 C166.563,320.714 134.462,317.315 119.967,275.503 C111.244,245.589 129.249,201.056 161.306,194.181 C208.231,164.698 224.993,228.708 269.001,229.898 C282.665,215.601 319.909,211.055 322.997,195.023 C294.122,189.928 359.631,170.744 320.233,159.832 C298.498,162.388 284.494,182.369 296.049,199.311 C253.93,209.132 252.581,138.359 212.094,160.682 C211.065,195.977 145.983,172.125 189.576,164.968 C204.554,158.424 165.146,139.46 186.436,142.906 C196.894,142.338 232.102,130 222.574,121.705 C242.179,109.535 258.654,150.85 277.843,120.764 C291.697,97.631 272.033,93.36 254.668,105.086 C244.878,94.124 271.953,70.448 295.834,60.217 C303.793,56.807 311.395,54.949 317.207,55.475 C329.236,69.371 351.482,71.778 352.646,53.804 C322.855,39.537 290.008,32 256,32 C207.189,32 160.765,47.512 122.346,76.195 C132.671,80.925 138.532,86.814 128.585,94.343 C120.857,117.37 89.5,148.281 61.973,143.905 C47.68,168.553 38.267,195.708 34.243,224.169 C57.299,231.797 62.615,246.894 57.661,251.944 C45.913,262.188 38.693,276.709 34.973,292.605 C42.478,338.523 64.059,380.843 97.608,414.393 C139.916,456.7 196.167,480 256,480 C315.832,480 372.084,456.7 414.392,414.393 L414.392,414.393 Z" id="Shape" sketch:type="MSShapeGroup"></path>
        </g>
        <g id="linkedin" sketch:type="MSLayerGroup" transform="translate(6305.000000, 10.000000)" fill="#000000">
            <path d="M426,0 L86,0 C38.7,0 0,38.7 0,86 L0,426 C0,473.3 38.7,512 86,512 L426,512 C473.3,512 512,473.3 512,426 L512,86 C512,38.7 473.3,0 426,0 L426,0 Z M192,416 L128,416 L128,192 L192,192 L192,416 L192,416 Z M160,160 C142.327,160 128,145.673 128,128 C128,110.327 142.327,96 160,96 C177.673,96 192,110.327 192,128 C192,145.673 177.673,160 160,160 L160,160 Z M416,416 L352,416 L352,288 C352,270.327 337.673,256 320,256 C302.327,256 288,270.327 288,288 L288,416 L224,416 L224,192 L288,192 L288,231.736 C301.199,213.604 321.376,192 344,192 C383.765,192 416,227.817 416,272 L416,416 L416,416 Z" id="Shape" sketch:type="MSShapeGroup"></path>
        </g>
        <g id="feed3" sketch:type="MSLayerGroup" transform="translate(860.000000, 10.000000)" fill="#000000">
            <path d="M426.67,0 L85.343,0 C38.405,0 0,38.406 0,85.344 L0,426.658 C0,473.625 38.406,512 85.344,512 L426.67,512 C473.608,512 512,473.626 512,426.658 L512,85.344 C512,38.406 473.608,0 426.67,0 L426.67,0 Z M139.472,415.624 C115.487,415.624 96,396.278 96,372.31 C96,348.468 115.486,328.904 139.472,328.904 C163.551,328.904 183.002,348.468 183.002,372.31 C183.001,396.278 163.55,415.624 139.472,415.624 L139.472,415.624 Z M248.734,415.998 C248.734,375.093 232.83,336.589 204.004,307.776 C175.147,278.901 136.816,262.963 96.052,262.963 L96.052,200.37 C214.878,200.37 311.615,297.091 311.615,415.997 L248.734,415.998 L248.734,415.998 Z M359.814,415.998 C359.814,270.467 241.485,152.028 96.126,152.028 L96.126,89.404 C276.127,89.404 422.599,235.966 422.599,416 L359.814,415.998 L359.814,415.998 Z" id="Shape" sketch:type="MSShapeGroup"></path>
        </g>
        <g id="flickr3" sketch:type="MSLayerGroup" transform="translate(1784.000000, 10.000000)" fill="#000000">
            <path d="M426.688,0 L85.344,0 C38.406,0 0,38.406 0,85.341 L0,426.654 C0,473.625 38.406,512 85.344,512 L426.685,512 C473.622,512 512,473.623 512,426.652 L512,85.341 C512,38.406 473.622,0 426.688,0 L426.688,0 Z M144,336 C99.817,336 64,300.183 64,256 C64,211.817 99.817,176 144,176 C188.183,176 224,211.817 224,256 C224,300.183 188.183,336 144,336 L144,336 Z M368,336 C323.816,336 288,300.183 288,256 C288,211.817 323.816,176 368,176 C412.184,176 448,211.817 448,256 C448,300.183 412.184,336 368,336 L368,336 Z" id="Shape" sketch:type="MSShapeGroup"></path>
        </g>
        <g id="tumblr2" sketch:type="MSLayerGroup" transform="translate(2666.000000, 10.000000)" fill="#000000">
            <path d="M426.69,0 L85.344,0 C38.405,0 0.001,38.407 0.001,85.343 L0.001,426.656 C0.001,473.625 38.405,512 85.344,512 L426.69,512 C473.625,512 512,473.625 512,426.656 L512,85.342 C511.996,38.407 473.621,0 426.69,0 L426.69,0 Z M365.858,412.344 C350.782,419.438 337.094,424.438 324.858,427.313 C312.61,430.158 299.378,431.592 285.157,431.592 C269.001,431.592 259.469,429.563 247.063,425.498 C234.659,421.404 224.063,415.562 215.313,408.062 C206.534,400.498 200.47,392.463 197.08,383.965 C193.688,375.463 192.002,363.119 192.002,346.963 L192.002,223.062 L144.004,223.062 L144.004,173.029 C157.876,168.529 173.972,162.062 183.846,153.654 C193.766,145.218 201.705,135.125 207.688,123.312 C213.69,111.529 217.813,96.499 220.064,78.279 L270.314,78.279 L270.314,160 L352,160 L352,223.063 L270.311,223.063 L270.311,313.657 C270.311,334.157 270.047,345.97 272.219,351.782 C274.375,357.562 279.782,363.562 285.67,367.032 C293.498,371.72 302.422,374.062 312.483,374.062 C330.376,374.062 348.172,368.249 365.858,356.624 L365.858,412.344 L365.858,412.344 Z" id="Shape" sketch:type="MSShapeGroup"></path>
        </g>
        <g id="github3" sketch:type="MSLayerGroup" transform="translate(3536.000000, 10.000000)" fill="#000000">
            <path d="M256,0 C114.615,0 0,114.615 0,256 C0,397.385 114.615,512 256,512 C397.385,512 512,397.385 512,256 C512,114.615 397.385,0 256,0 L256,0 Z M408.028,408.028 C388.269,427.786 365.272,443.294 339.674,454.121 C333.171,456.871 326.567,459.285 319.874,461.367 L319.874,423 C319.874,402.833 312.957,388 299.124,378.5 C307.791,377.667 315.749,376.5 322.999,375 C330.249,373.5 337.916,371.333 345.999,368.5 C354.082,365.667 361.332,362.292 367.749,358.375 C374.166,354.458 380.332,349.375 386.249,343.125 C392.166,336.875 397.124,329.792 401.124,321.875 C405.124,313.958 408.291,304.458 410.624,293.375 C412.957,282.292 414.124,270.083 414.124,256.75 C414.124,230.917 405.707,208.917 388.874,190.75 C396.541,170.75 395.707,149 386.374,125.5 L380.124,124.75 C375.791,124.25 367.999,126.083 356.749,130.25 C345.499,134.417 332.874,141.25 318.874,150.75 C299.041,145.25 278.457,142.5 257.124,142.5 C235.624,142.5 215.124,145.25 195.624,150.75 C186.791,144.75 178.416,139.792 170.499,135.875 C162.582,131.958 156.249,129.292 151.499,127.875 C146.749,126.458 142.332,125.583 138.249,125.25 C134.166,124.917 131.541,124.833 130.374,125 C129.207,125.167 128.374,125.333 127.874,125.5 C118.541,149.167 117.707,170.917 125.374,190.75 C108.541,208.917 100.124,230.917 100.124,256.75 C100.124,270.083 101.291,282.292 103.624,293.375 C105.957,304.458 109.124,313.958 113.124,321.875 C117.124,329.792 122.082,336.875 127.999,343.125 C133.916,349.375 140.082,354.458 146.499,358.375 C152.916,362.292 160.166,365.667 168.249,368.5 C176.332,371.333 183.999,373.5 191.249,375 C198.499,376.5 206.457,377.667 215.124,378.5 C201.457,387.833 194.624,402.667 194.624,423 L194.624,462.115 C187.075,459.868 179.634,457.213 172.324,454.121 C146.727,443.294 123.73,427.786 103.971,408.028 C84.213,388.269 68.704,365.272 57.878,339.674 C46.679,313.195 41,285.043 41,256 C41,226.957 46.679,198.805 57.879,172.325 C68.706,146.728 84.214,123.731 103.972,103.972 C123.73,84.213 146.728,68.705 172.325,57.879 C198.805,46.679 226.957,41 256,41 C285.043,41 313.195,46.679 339.675,57.879 C365.273,68.706 388.27,84.214 408.029,103.972 C427.787,123.73 443.295,146.728 454.122,172.325 C465.321,198.805 471,226.957 471,256 C471,285.043 465.321,313.195 454.121,339.675 C443.294,365.272 427.786,388.27 408.028,408.028 L408.028,408.028 Z" id="Shape" sketch:type="MSShapeGroup"></path>
        </g>
        <g id="youtube" sketch:type="MSLayerGroup" transform="translate(4412.000000, 74.000000)" fill="#000000">
            <path d="M416,0 L96,0 C43.2,0 0,43.2 0,96 L0,288 C0,340.8 43.2,384 96,384 L416,384 C468.8,384 512,340.8 512,288 L512,96 C512,43.2 468.8,0 416,0 L416,0 Z M192,320 L192,64 L352,192 L192,320 L192,320 Z" id="Shape" sketch:type="MSShapeGroup"></path>
        </g>
        <g id="twitter2" sketch:type="MSLayerGroup" transform="translate(5343.000000, 10.000000)" fill="#000000">
            <path d="M426.671,0 L85.343,0 C38.406,0 0,38.405 0,85.345 L0,426.656 C0,473.625 38.406,512 85.343,512 L426.671,512 C473.609,512 512,473.625 512,426.655 L512,85.345 C512,38.405 473.609,0 426.671,0 L426.671,0 Z M419.026,170.917 C419.19,174.588 419.271,178.281 419.271,181.991 C419.271,295.098 334.663,425.525 179.942,425.525 C132.44,425.525 88.225,411.351 50.999,387.066 C57.579,387.86 64.275,388.263 71.064,388.263 C110.475,388.263 146.743,374.578 175.531,351.622 C138.723,350.932 107.659,326.184 96.954,292.181 C102.091,293.181 107.36,293.718 112.78,293.718 C120.452,293.718 127.883,292.67 134.94,290.714 C96.46,282.848 67.465,248.256 67.465,206.786 C67.465,206.425 67.465,206.067 67.473,205.71 C78.813,212.12 91.785,215.97 105.573,216.415 C83.002,201.066 68.152,174.869 68.152,145.171 C68.152,129.486 72.299,114.782 79.541,102.142 C121.028,153.927 183.009,188.002 252.918,191.573 C251.483,185.307 250.739,178.775 250.739,172.066 C250.739,124.797 288.402,86.476 334.854,86.476 C359.049,86.476 380.913,96.869 396.255,113.505 C415.415,109.667 433.417,102.545 449.671,92.734 C443.39,112.722 430.054,129.495 412.688,140.089 C429.701,138.02 445.914,133.419 460.998,126.612 C449.725,143.774 435.463,158.85 419.026,170.917 L419.026,170.917 Z" id="Shape" sketch:type="MSShapeGroup"></path>
        </g>
        <g id="google-plus3" sketch:type="MSLayerGroup" transform="translate(7290.000000, 10.000000)" fill="#000000">
            <path d="M0.403,434.832 C0.281,433.566 0.177,432.297 0.111,431.017 C0.176,432.297 0.281,433.566 0.403,434.832 L0.403,434.832 Z M117.954,282.574 C163.959,283.943 194.821,236.225 186.885,175.975 C178.938,115.735 135.187,67.391 89.181,66.014 C43.168,64.649 12.311,110.755 20.255,171.014 C28.196,231.248 71.931,281.201 117.954,282.574 L117.954,282.574 Z M512,128 L512,85.345 C512,38.405 473.609,0 426.671,0 L85.343,0 C39.205,0 1.337,37.116 0.061,82.963 C29.242,57.27 69.723,35.805 111.498,35.805 L290.12,35.805 L250.146,69.614 L193.512,69.614 C231.077,84.016 251.09,127.676 251.09,172.475 C251.09,210.099 230.185,242.452 200.646,265.459 C171.824,287.91 166.36,297.313 166.36,316.398 C166.36,332.687 197.233,360.398 213.376,371.792 C260.567,405.061 275.834,435.948 275.834,487.52 C275.834,495.734 274.813,503.935 272.801,512 L426.672,512 C473.609,512 512,473.625 512,426.655 L512,160.001 L416,160.001 L416,256 L384,256 L384,160 L288.001,160 L288.001,128 L384,128 L384,32 L416,32 L416,128 L512,128 L512,128 Z M92.943,382.968 C103.75,382.968 113.654,382.673 123.911,382.673 C110.338,369.506 99.598,353.373 99.598,333.483 C99.598,321.679 103.38,310.315 108.665,300.223 C103.274,300.608 97.77,300.72 92.102,300.72 C54.924,300.72 23.349,288.682 0,268.793 L0,302.414 L0.003,403.279 C26.723,390.592 58.447,382.968 92.943,382.968 L92.943,382.968 Z M1.71,443.629 C1.154,440.9 0.727,438.126 0.439,435.312 C0.726,438.126 1.154,440.9 1.71,443.629 L1.71,443.629 Z M227.725,476.423 C220.196,447.02 193.498,432.441 156.281,406.639 C142.745,402.273 127.834,399.702 111.834,399.535 C67.025,399.053 25.28,417.006 1.726,443.721 C9.686,482.574 44.243,512 85.343,512 L228.565,512 C229.473,506.436 229.913,500.684 229.913,494.784 C229.913,488.517 229.146,482.388 227.725,476.423 L227.725,476.423 Z" id="Shape" sketch:type="MSShapeGroup"></path>
        </g>
        <g id="facebook2" sketch:type="MSLayerGroup" transform="translate(8260.000000, 10.000000)" fill="#000000">
            <path d="M426.672,0 L85.342,0 C38.406,0 0,38.407 0,85.344 L0,426.657 C0,473.626 38.406,512 85.342,512 L426.672,511.999 C473.61,511.999 512,473.626 512,426.655 L512,85.344 C512,38.407 473.609,0 426.672,0 L426.672,0 Z M435.296,256 L352,256 L352,480 L256,480 L256,256 L209.737,256 L209.737,182.718 L256,182.718 L256,135.125 C256,70.454 283.896,32 359.935,32 L447.557,32 L447.557,111.285 L375.992,111.285 C354.751,111.25 352.116,122.361 352.116,143.041 L352,182.718 L448,182.718 L435.296,256 L435.296,256 Z" id="Shape" sketch:type="MSShapeGroup"></path>
        </g>
        <g id="icon-earth" sketch:type="MSLayerGroup" transform="translate(0.000000, 630.000000)" fill="#CF1B41">
            <path d="M437.02,74.981 C485.371,123.333 512,187.621 512,256.001 C512,324.381 485.371,388.668 437.02,437.02 C388.667,485.371 324.38,512 256,512 C187.62,512 123.333,485.371 74.98,437.02 C26.629,388.668 0,324.381 0,256.001 C0,187.621 26.627,123.333 74.98,74.981 C123.333,26.629 187.62,0 256,0 C324.38,0 388.667,26.629 437.02,74.981 L437.02,74.981 Z M414.392,414.393 C445.921,382.863 466.885,343.589 475.528,300.862 C468.791,310.78 462.347,314.459 458.356,292.259 C454.246,256.064 421.002,279.185 400.098,266.329 C378.096,281.158 328.645,237.498 337.049,286.741 C350.016,308.952 407.053,257.016 378.623,304.012 C360.486,336.82 312.302,409.478 318.57,447.141 C319.361,502.013 262.503,458.583 242.913,440.381 C229.735,403.921 238.422,340.194 203.964,322.338 C166.563,320.714 134.462,317.315 119.967,275.503 C111.244,245.589 129.249,201.056 161.306,194.181 C208.231,164.698 224.993,228.708 269.001,229.898 C282.665,215.601 319.909,211.055 322.997,195.023 C294.122,189.928 359.631,170.744 320.233,159.832 C298.498,162.388 284.494,182.369 296.049,199.311 C253.93,209.132 252.581,138.359 212.094,160.682 C211.065,195.977 145.983,172.125 189.576,164.968 C204.554,158.424 165.146,139.46 186.436,142.906 C196.894,142.338 232.102,130 222.574,121.705 C242.179,109.535 258.654,150.85 277.843,120.764 C291.697,97.631 272.033,93.36 254.668,105.086 C244.878,94.124 271.953,70.448 295.834,60.217 C303.793,56.807 311.395,54.949 317.207,55.475 C329.236,69.371 351.482,71.778 352.646,53.804 C322.855,39.537 290.008,32 256,32 C207.189,32 160.765,47.512 122.346,76.195 C132.671,80.925 138.532,86.814 128.585,94.343 C120.857,117.37 89.5,148.281 61.973,143.905 C47.68,168.553 38.267,195.708 34.243,224.169 C57.299,231.797 62.615,246.894 57.661,251.944 C45.913,262.188 38.693,276.709 34.973,292.605 C42.478,338.523 64.059,380.843 97.608,414.393 C139.916,456.7 196.167,480 256,480 C315.832,480 372.084,456.7 414.392,414.393 L414.392,414.393 Z" id="Shape" sketch:type="MSShapeGroup"></path>
        </g>
        <g id="linkedin" sketch:type="MSLayerGroup" transform="translate(6305.000000, 640.000000)" fill="#CF1B41">
            <path d="M426,0 L86,0 C38.7,0 0,38.7 0,86 L0,426 C0,473.3 38.7,512 86,512 L426,512 C473.3,512 512,473.3 512,426 L512,86 C512,38.7 473.3,0 426,0 L426,0 Z M192,416 L128,416 L128,192 L192,192 L192,416 L192,416 Z M160,160 C142.327,160 128,145.673 128,128 C128,110.327 142.327,96 160,96 C177.673,96 192,110.327 192,128 C192,145.673 177.673,160 160,160 L160,160 Z M416,416 L352,416 L352,288 C352,270.327 337.673,256 320,256 C302.327,256 288,270.327 288,288 L288,416 L224,416 L224,192 L288,192 L288,231.736 C301.199,213.604 321.376,192 344,192 C383.765,192 416,227.817 416,272 L416,416 L416,416 Z" id="Shape" sketch:type="MSShapeGroup"></path>
        </g>
        <g id="feed3" sketch:type="MSLayerGroup" transform="translate(860.000000, 640.000000)" fill="#CF1B41">
            <path d="M426.67,0 L85.343,0 C38.405,0 0,38.406 0,85.344 L0,426.658 C0,473.625 38.406,512 85.344,512 L426.67,512 C473.608,512 512,473.626 512,426.658 L512,85.344 C512,38.406 473.608,0 426.67,0 L426.67,0 Z M139.472,415.624 C115.487,415.624 96,396.278 96,372.31 C96,348.468 115.486,328.904 139.472,328.904 C163.551,328.904 183.002,348.468 183.002,372.31 C183.001,396.278 163.55,415.624 139.472,415.624 L139.472,415.624 Z M248.734,415.998 C248.734,375.093 232.83,336.589 204.004,307.776 C175.147,278.901 136.816,262.963 96.052,262.963 L96.052,200.37 C214.878,200.37 311.615,297.091 311.615,415.997 L248.734,415.998 L248.734,415.998 Z M359.814,415.998 C359.814,270.467 241.485,152.028 96.126,152.028 L96.126,89.404 C276.127,89.404 422.599,235.966 422.599,416 L359.814,415.998 L359.814,415.998 Z" id="Shape" sketch:type="MSShapeGroup"></path>
        </g>
        <g id="flickr3" sketch:type="MSLayerGroup" transform="translate(1784.000000, 640.000000)" fill="#CF1B41">
            <path d="M426.688,0 L85.344,0 C38.406,0 0,38.406 0,85.341 L0,426.654 C0,473.625 38.406,512 85.344,512 L426.685,512 C473.622,512 512,473.623 512,426.652 L512,85.341 C512,38.406 473.622,0 426.688,0 L426.688,0 Z M144,336 C99.817,336 64,300.183 64,256 C64,211.817 99.817,176 144,176 C188.183,176 224,211.817 224,256 C224,300.183 188.183,336 144,336 L144,336 Z M368,336 C323.816,336 288,300.183 288,256 C288,211.817 323.816,176 368,176 C412.184,176 448,211.817 448,256 C448,300.183 412.184,336 368,336 L368,336 Z" id="Shape" sketch:type="MSShapeGroup"></path>
        </g>
        <g id="tumblr2" sketch:type="MSLayerGroup" transform="translate(2666.000000, 640.000000)" fill="#CF1B41">
            <path d="M426.69,0 L85.344,0 C38.405,0 0.001,38.407 0.001,85.343 L0.001,426.656 C0.001,473.625 38.405,512 85.344,512 L426.69,512 C473.625,512 512,473.625 512,426.656 L512,85.342 C511.996,38.407 473.621,0 426.69,0 L426.69,0 Z M365.858,412.344 C350.782,419.438 337.094,424.438 324.858,427.313 C312.61,430.158 299.378,431.592 285.157,431.592 C269.001,431.592 259.469,429.563 247.063,425.498 C234.659,421.404 224.063,415.562 215.313,408.062 C206.534,400.498 200.47,392.463 197.08,383.965 C193.688,375.463 192.002,363.119 192.002,346.963 L192.002,223.062 L144.004,223.062 L144.004,173.029 C157.876,168.529 173.972,162.062 183.846,153.654 C193.766,145.218 201.705,135.125 207.688,123.312 C213.69,111.529 217.813,96.499 220.064,78.279 L270.314,78.279 L270.314,160 L352,160 L352,223.063 L270.311,223.063 L270.311,313.657 C270.311,334.157 270.047,345.97 272.219,351.782 C274.375,357.562 279.782,363.562 285.67,367.032 C293.498,371.72 302.422,374.062 312.483,374.062 C330.376,374.062 348.172,368.249 365.858,356.624 L365.858,412.344 L365.858,412.344 Z" id="Shape" sketch:type="MSShapeGroup"></path>
        </g>
        <g id="github3" sketch:type="MSLayerGroup" transform="translate(3536.000000, 640.000000)" fill="#CF1B41">
            <path d="M256,0 C114.615,0 0,114.615 0,256 C0,397.385 114.615,512 256,512 C397.385,512 512,397.385 512,256 C512,114.615 397.385,0 256,0 L256,0 Z M408.028,408.028 C388.269,427.786 365.272,443.294 339.674,454.121 C333.171,456.871 326.567,459.285 319.874,461.367 L319.874,423 C319.874,402.833 312.957,388 299.124,378.5 C307.791,377.667 315.749,376.5 322.999,375 C330.249,373.5 337.916,371.333 345.999,368.5 C354.082,365.667 361.332,362.292 367.749,358.375 C374.166,354.458 380.332,349.375 386.249,343.125 C392.166,336.875 397.124,329.792 401.124,321.875 C405.124,313.958 408.291,304.458 410.624,293.375 C412.957,282.292 414.124,270.083 414.124,256.75 C414.124,230.917 405.707,208.917 388.874,190.75 C396.541,170.75 395.707,149 386.374,125.5 L380.124,124.75 C375.791,124.25 367.999,126.083 356.749,130.25 C345.499,134.417 332.874,141.25 318.874,150.75 C299.041,145.25 278.457,142.5 257.124,142.5 C235.624,142.5 215.124,145.25 195.624,150.75 C186.791,144.75 178.416,139.792 170.499,135.875 C162.582,131.958 156.249,129.292 151.499,127.875 C146.749,126.458 142.332,125.583 138.249,125.25 C134.166,124.917 131.541,124.833 130.374,125 C129.207,125.167 128.374,125.333 127.874,125.5 C118.541,149.167 117.707,170.917 125.374,190.75 C108.541,208.917 100.124,230.917 100.124,256.75 C100.124,270.083 101.291,282.292 103.624,293.375 C105.957,304.458 109.124,313.958 113.124,321.875 C117.124,329.792 122.082,336.875 127.999,343.125 C133.916,349.375 140.082,354.458 146.499,358.375 C152.916,362.292 160.166,365.667 168.249,368.5 C176.332,371.333 183.999,373.5 191.249,375 C198.499,376.5 206.457,377.667 215.124,378.5 C201.457,387.833 194.624,402.667 194.624,423 L194.624,462.115 C187.075,459.868 179.634,457.213 172.324,454.121 C146.727,443.294 123.73,427.786 103.971,408.028 C84.213,388.269 68.704,365.272 57.878,339.674 C46.679,313.195 41,285.043 41,256 C41,226.957 46.679,198.805 57.879,172.325 C68.706,146.728 84.214,123.731 103.972,103.972 C123.73,84.213 146.728,68.705 172.325,57.879 C198.805,46.679 226.957,41 256,41 C285.043,41 313.195,46.679 339.675,57.879 C365.273,68.706 388.27,84.214 408.029,103.972 C427.787,123.73 443.295,146.728 454.122,172.325 C465.321,198.805 471,226.957 471,256 C471,285.043 465.321,313.195 454.121,339.675 C443.294,365.272 427.786,388.27 408.028,408.028 L408.028,408.028 Z" id="Shape" sketch:type="MSShapeGroup"></path>
        </g>
        <g id="youtube" sketch:type="MSLayerGroup" transform="translate(4412.000000, 704.000000)" fill="#CF1B41">
            <path d="M416,0 L96,0 C43.2,0 0,43.2 0,96 L0,288 C0,340.8 43.2,384 96,384 L416,384 C468.8,384 512,340.8 512,288 L512,96 C512,43.2 468.8,0 416,0 L416,0 Z M192,320 L192,64 L352,192 L192,320 L192,320 Z" id="Shape" sketch:type="MSShapeGroup"></path>
        </g>
        <g id="twitter2" sketch:type="MSLayerGroup" transform="translate(5343.000000, 640.000000)" fill="#CF1B41">
            <path d="M426.671,0 L85.343,0 C38.406,0 0,38.405 0,85.345 L0,426.656 C0,473.625 38.406,512 85.343,512 L426.671,512 C473.609,512 512,473.625 512,426.655 L512,85.345 C512,38.405 473.609,0 426.671,0 L426.671,0 Z M419.026,170.917 C419.19,174.588 419.271,178.281 419.271,181.991 C419.271,295.098 334.663,425.525 179.942,425.525 C132.44,425.525 88.225,411.351 50.999,387.066 C57.579,387.86 64.275,388.263 71.064,388.263 C110.475,388.263 146.743,374.578 175.531,351.622 C138.723,350.932 107.659,326.184 96.954,292.181 C102.091,293.181 107.36,293.718 112.78,293.718 C120.452,293.718 127.883,292.67 134.94,290.714 C96.46,282.848 67.465,248.256 67.465,206.786 C67.465,206.425 67.465,206.067 67.473,205.71 C78.813,212.12 91.785,215.97 105.573,216.415 C83.002,201.066 68.152,174.869 68.152,145.171 C68.152,129.486 72.299,114.782 79.541,102.142 C121.028,153.927 183.009,188.002 252.918,191.573 C251.483,185.307 250.739,178.775 250.739,172.066 C250.739,124.797 288.402,86.476 334.854,86.476 C359.049,86.476 380.913,96.869 396.255,113.505 C415.415,109.667 433.417,102.545 449.671,92.734 C443.39,112.722 430.054,129.495 412.688,140.089 C429.701,138.02 445.914,133.419 460.998,126.612 C449.725,143.774 435.463,158.85 419.026,170.917 L419.026,170.917 Z" id="Shape" sketch:type="MSShapeGroup"></path>
        </g>
        <g id="google-plus3" sketch:type="MSLayerGroup" transform="translate(7290.000000, 640.000000)" fill="#CF1B41">
            <path d="M0.403,434.832 C0.281,433.566 0.177,432.297 0.111,431.017 C0.176,432.297 0.281,433.566 0.403,434.832 L0.403,434.832 Z M117.954,282.574 C163.959,283.943 194.821,236.225 186.885,175.975 C178.938,115.735 135.187,67.391 89.181,66.014 C43.168,64.649 12.311,110.755 20.255,171.014 C28.196,231.248 71.931,281.201 117.954,282.574 L117.954,282.574 Z M512,128 L512,85.345 C512,38.405 473.609,0 426.671,0 L85.343,0 C39.205,0 1.337,37.116 0.061,82.963 C29.242,57.27 69.723,35.805 111.498,35.805 L290.12,35.805 L250.146,69.614 L193.512,69.614 C231.077,84.016 251.09,127.676 251.09,172.475 C251.09,210.099 230.185,242.452 200.646,265.459 C171.824,287.91 166.36,297.313 166.36,316.398 C166.36,332.687 197.233,360.398 213.376,371.792 C260.567,405.061 275.834,435.948 275.834,487.52 C275.834,495.734 274.813,503.935 272.801,512 L426.672,512 C473.609,512 512,473.625 512,426.655 L512,160.001 L416,160.001 L416,256 L384,256 L384,160 L288.001,160 L288.001,128 L384,128 L384,32 L416,32 L416,128 L512,128 L512,128 Z M92.943,382.968 C103.75,382.968 113.654,382.673 123.911,382.673 C110.338,369.506 99.598,353.373 99.598,333.483 C99.598,321.679 103.38,310.315 108.665,300.223 C103.274,300.608 97.77,300.72 92.102,300.72 C54.924,300.72 23.349,288.682 0,268.793 L0,302.414 L0.003,403.279 C26.723,390.592 58.447,382.968 92.943,382.968 L92.943,382.968 Z M1.71,443.629 C1.154,440.9 0.727,438.126 0.439,435.312 C0.726,438.126 1.154,440.9 1.71,443.629 L1.71,443.629 Z M227.725,476.423 C220.196,447.02 193.498,432.441 156.281,406.639 C142.745,402.273 127.834,399.702 111.834,399.535 C67.025,399.053 25.28,417.006 1.726,443.721 C9.686,482.574 44.243,512 85.343,512 L228.565,512 C229.473,506.436 229.913,500.684 229.913,494.784 C229.913,488.517 229.146,482.388 227.725,476.423 L227.725,476.423 Z" id="Shape" sketch:type="MSShapeGroup"></path>
        </g>
        <g id="facebook2" sketch:type="MSLayerGroup" transform="translate(8260.000000, 640.000000)" fill="#CF1B41">
            <path d="M426.672,0 L85.342,0 C38.406,0 0,38.407 0,85.344 L0,426.657 C0,473.626 38.406,512 85.342,512 L426.672,511.999 C473.61,511.999 512,473.626 512,426.655 L512,85.344 C512,38.407 473.609,0 426.672,0 L426.672,0 Z M435.296,256 L352,256 L352,480 L256,480 L256,256 L209.737,256 L209.737,182.718 L256,182.718 L256,135.125 C256,70.454 283.896,32 359.935,32 L447.557,32 L447.557,111.285 L375.992,111.285 C354.751,111.25 352.116,122.361 352.116,143.041 L352,182.718 L448,182.718 L435.296,256 L435.296,256 Z" id="Shape" sketch:type="MSShapeGroup"></path>
        </g>
        <g id="icon-earth" sketch:type="MSLayerGroup" transform="translate(0.000000, 1260.000000)" fill="#399FD3">
            <path d="M437.02,74.981 C485.371,123.333 512,187.621 512,256.001 C512,324.381 485.371,388.668 437.02,437.02 C388.667,485.371 324.38,512 256,512 C187.62,512 123.333,485.371 74.98,437.02 C26.629,388.668 0,324.381 0,256.001 C0,187.621 26.627,123.333 74.98,74.981 C123.333,26.629 187.62,0 256,0 C324.38,0 388.667,26.629 437.02,74.981 L437.02,74.981 Z M414.392,414.393 C445.921,382.863 466.885,343.589 475.528,300.862 C468.791,310.78 462.347,314.459 458.356,292.259 C454.246,256.064 421.002,279.185 400.098,266.329 C378.096,281.158 328.645,237.498 337.049,286.741 C350.016,308.952 407.053,257.016 378.623,304.012 C360.486,336.82 312.302,409.478 318.57,447.141 C319.361,502.013 262.503,458.583 242.913,440.381 C229.735,403.921 238.422,340.194 203.964,322.338 C166.563,320.714 134.462,317.315 119.967,275.503 C111.244,245.589 129.249,201.056 161.306,194.181 C208.231,164.698 224.993,228.708 269.001,229.898 C282.665,215.601 319.909,211.055 322.997,195.023 C294.122,189.928 359.631,170.744 320.233,159.832 C298.498,162.388 284.494,182.369 296.049,199.311 C253.93,209.132 252.581,138.359 212.094,160.682 C211.065,195.977 145.983,172.125 189.576,164.968 C204.554,158.424 165.146,139.46 186.436,142.906 C196.894,142.338 232.102,130 222.574,121.705 C242.179,109.535 258.654,150.85 277.843,120.764 C291.697,97.631 272.033,93.36 254.668,105.086 C244.878,94.124 271.953,70.448 295.834,60.217 C303.793,56.807 311.395,54.949 317.207,55.475 C329.236,69.371 351.482,71.778 352.646,53.804 C322.855,39.537 290.008,32 256,32 C207.189,32 160.765,47.512 122.346,76.195 C132.671,80.925 138.532,86.814 128.585,94.343 C120.857,117.37 89.5,148.281 61.973,143.905 C47.68,168.553 38.267,195.708 34.243,224.169 C57.299,231.797 62.615,246.894 57.661,251.944 C45.913,262.188 38.693,276.709 34.973,292.605 C42.478,338.523 64.059,380.843 97.608,414.393 C139.916,456.7 196.167,480 256,480 C315.832,480 372.084,456.7 414.392,414.393 L414.392,414.393 Z" id="Shape" sketch:type="MSShapeGroup"></path>
        </g>
        <g id="linkedin" sketch:type="MSLayerGroup" transform="translate(6305.000000, 1270.000000)" fill="#399FD3">
            <path d="M426,0 L86,0 C38.7,0 0,38.7 0,86 L0,426 C0,473.3 38.7,512 86,512 L426,512 C473.3,512 512,473.3 512,426 L512,86 C512,38.7 473.3,0 426,0 L426,0 Z M192,416 L128,416 L128,192 L192,192 L192,416 L192,416 Z M160,160 C142.327,160 128,145.673 128,128 C128,110.327 142.327,96 160,96 C177.673,96 192,110.327 192,128 C192,145.673 177.673,160 160,160 L160,160 Z M416,416 L352,416 L352,288 C352,270.327 337.673,256 320,256 C302.327,256 288,270.327 288,288 L288,416 L224,416 L224,192 L288,192 L288,231.736 C301.199,213.604 321.376,192 344,192 C383.765,192 416,227.817 416,272 L416,416 L416,416 Z" id="Shape" sketch:type="MSShapeGroup"></path>
        </g>
        <g id="feed3" sketch:type="MSLayerGroup" transform="translate(860.000000, 1270.000000)" fill="#399FD3">
            <path d="M426.67,0 L85.343,0 C38.405,0 0,38.406 0,85.344 L0,426.658 C0,473.625 38.406,512 85.344,512 L426.67,512 C473.608,512 512,473.626 512,426.658 L512,85.344 C512,38.406 473.608,0 426.67,0 L426.67,0 Z M139.472,415.624 C115.487,415.624 96,396.278 96,372.31 C96,348.468 115.486,328.904 139.472,328.904 C163.551,328.904 183.002,348.468 183.002,372.31 C183.001,396.278 163.55,415.624 139.472,415.624 L139.472,415.624 Z M248.734,415.998 C248.734,375.093 232.83,336.589 204.004,307.776 C175.147,278.901 136.816,262.963 96.052,262.963 L96.052,200.37 C214.878,200.37 311.615,297.091 311.615,415.997 L248.734,415.998 L248.734,415.998 Z M359.814,415.998 C359.814,270.467 241.485,152.028 96.126,152.028 L96.126,89.404 C276.127,89.404 422.599,235.966 422.599,416 L359.814,415.998 L359.814,415.998 Z" id="Shape" sketch:type="MSShapeGroup"></path>
        </g>
        <g id="flickr3" sketch:type="MSLayerGroup" transform="translate(1784.000000, 1270.000000)" fill="#399FD3">
            <path d="M426.688,0 L85.344,0 C38.406,0 0,38.406 0,85.341 L0,426.654 C0,473.625 38.406,512 85.344,512 L426.685,512 C473.622,512 512,473.623 512,426.652 L512,85.341 C512,38.406 473.622,0 426.688,0 L426.688,0 Z M144,336 C99.817,336 64,300.183 64,256 C64,211.817 99.817,176 144,176 C188.183,176 224,211.817 224,256 C224,300.183 188.183,336 144,336 L144,336 Z M368,336 C323.816,336 288,300.183 288,256 C288,211.817 323.816,176 368,176 C412.184,176 448,211.817 448,256 C448,300.183 412.184,336 368,336 L368,336 Z" id="Shape" sketch:type="MSShapeGroup"></path>
        </g>
        <g id="tumblr2" sketch:type="MSLayerGroup" transform="translate(2666.000000, 1270.000000)" fill="#399FD3">
            <path d="M426.69,0 L85.344,0 C38.405,0 0.001,38.407 0.001,85.343 L0.001,426.656 C0.001,473.625 38.405,512 85.344,512 L426.69,512 C473.625,512 512,473.625 512,426.656 L512,85.342 C511.996,38.407 473.621,0 426.69,0 L426.69,0 Z M365.858,412.344 C350.782,419.438 337.094,424.438 324.858,427.313 C312.61,430.158 299.378,431.592 285.157,431.592 C269.001,431.592 259.469,429.563 247.063,425.498 C234.659,421.404 224.063,415.562 215.313,408.062 C206.534,400.498 200.47,392.463 197.08,383.965 C193.688,375.463 192.002,363.119 192.002,346.963 L192.002,223.062 L144.004,223.062 L144.004,173.029 C157.876,168.529 173.972,162.062 183.846,153.654 C193.766,145.218 201.705,135.125 207.688,123.312 C213.69,111.529 217.813,96.499 220.064,78.279 L270.314,78.279 L270.314,160 L352,160 L352,223.063 L270.311,223.063 L270.311,313.657 C270.311,334.157 270.047,345.97 272.219,351.782 C274.375,357.562 279.782,363.562 285.67,367.032 C293.498,371.72 302.422,374.062 312.483,374.062 C330.376,374.062 348.172,368.249 365.858,356.624 L365.858,412.344 L365.858,412.344 Z" id="Shape" sketch:type="MSShapeGroup"></path>
        </g>
        <g id="github3" sketch:type="MSLayerGroup" transform="translate(3536.000000, 1270.000000)" fill="#399FD3">
            <path d="M256,0 C114.615,0 0,114.615 0,256 C0,397.385 114.615,512 256,512 C397.385,512 512,397.385 512,256 C512,114.615 397.385,0 256,0 L256,0 Z M408.028,408.028 C388.269,427.786 365.272,443.294 339.674,454.121 C333.171,456.871 326.567,459.285 319.874,461.367 L319.874,423 C319.874,402.833 312.957,388 299.124,378.5 C307.791,377.667 315.749,376.5 322.999,375 C330.249,373.5 337.916,371.333 345.999,368.5 C354.082,365.667 361.332,362.292 367.749,358.375 C374.166,354.458 380.332,349.375 386.249,343.125 C392.166,336.875 397.124,329.792 401.124,321.875 C405.124,313.958 408.291,304.458 410.624,293.375 C412.957,282.292 414.124,270.083 414.124,256.75 C414.124,230.917 405.707,208.917 388.874,190.75 C396.541,170.75 395.707,149 386.374,125.5 L380.124,124.75 C375.791,124.25 367.999,126.083 356.749,130.25 C345.499,134.417 332.874,141.25 318.874,150.75 C299.041,145.25 278.457,142.5 257.124,142.5 C235.624,142.5 215.124,145.25 195.624,150.75 C186.791,144.75 178.416,139.792 170.499,135.875 C162.582,131.958 156.249,129.292 151.499,127.875 C146.749,126.458 142.332,125.583 138.249,125.25 C134.166,124.917 131.541,124.833 130.374,125 C129.207,125.167 128.374,125.333 127.874,125.5 C118.541,149.167 117.707,170.917 125.374,190.75 C108.541,208.917 100.124,230.917 100.124,256.75 C100.124,270.083 101.291,282.292 103.624,293.375 C105.957,304.458 109.124,313.958 113.124,321.875 C117.124,329.792 122.082,336.875 127.999,343.125 C133.916,349.375 140.082,354.458 146.499,358.375 C152.916,362.292 160.166,365.667 168.249,368.5 C176.332,371.333 183.999,373.5 191.249,375 C198.499,376.5 206.457,377.667 215.124,378.5 C201.457,387.833 194.624,402.667 194.624,423 L194.624,462.115 C187.075,459.868 179.634,457.213 172.324,454.121 C146.727,443.294 123.73,427.786 103.971,408.028 C84.213,388.269 68.704,365.272 57.878,339.674 C46.679,313.195 41,285.043 41,256 C41,226.957 46.679,198.805 57.879,172.325 C68.706,146.728 84.214,123.731 103.972,103.972 C123.73,84.213 146.728,68.705 172.325,57.879 C198.805,46.679 226.957,41 256,41 C285.043,41 313.195,46.679 339.675,57.879 C365.273,68.706 388.27,84.214 408.029,103.972 C427.787,123.73 443.295,146.728 454.122,172.325 C465.321,198.805 471,226.957 471,256 C471,285.043 465.321,313.195 454.121,339.675 C443.294,365.272 427.786,388.27 408.028,408.028 L408.028,408.028 Z" id="Shape" sketch:type="MSShapeGroup"></path>
        </g>
        <g id="youtube" sketch:type="MSLayerGroup" transform="translate(4412.000000, 1334.000000)" fill="#399FD3">
            <path d="M416,0 L96,0 C43.2,0 0,43.2 0,96 L0,288 C0,340.8 43.2,384 96,384 L416,384 C468.8,384 512,340.8 512,288 L512,96 C512,43.2 468.8,0 416,0 L416,0 Z M192,320 L192,64 L352,192 L192,320 L192,320 Z" id="Shape" sketch:type="MSShapeGroup"></path>
        </g>
        <g id="twitter2" sketch:type="MSLayerGroup" transform="translate(5343.000000, 1270.000000)" fill="#399FD3">
            <path d="M426.671,0 L85.343,0 C38.406,0 0,38.405 0,85.345 L0,426.656 C0,473.625 38.406,512 85.343,512 L426.671,512 C473.609,512 512,473.625 512,426.655 L512,85.345 C512,38.405 473.609,0 426.671,0 L426.671,0 Z M419.026,170.917 C419.19,174.588 419.271,178.281 419.271,181.991 C419.271,295.098 334.663,425.525 179.942,425.525 C132.44,425.525 88.225,411.351 50.999,387.066 C57.579,387.86 64.275,388.263 71.064,388.263 C110.475,388.263 146.743,374.578 175.531,351.622 C138.723,350.932 107.659,326.184 96.954,292.181 C102.091,293.181 107.36,293.718 112.78,293.718 C120.452,293.718 127.883,292.67 134.94,290.714 C96.46,282.848 67.465,248.256 67.465,206.786 C67.465,206.425 67.465,206.067 67.473,205.71 C78.813,212.12 91.785,215.97 105.573,216.415 C83.002,201.066 68.152,174.869 68.152,145.171 C68.152,129.486 72.299,114.782 79.541,102.142 C121.028,153.927 183.009,188.002 252.918,191.573 C251.483,185.307 250.739,178.775 250.739,172.066 C250.739,124.797 288.402,86.476 334.854,86.476 C359.049,86.476 380.913,96.869 396.255,113.505 C415.415,109.667 433.417,102.545 449.671,92.734 C443.39,112.722 430.054,129.495 412.688,140.089 C429.701,138.02 445.914,133.419 460.998,126.612 C449.725,143.774 435.463,158.85 419.026,170.917 L419.026,170.917 Z" id="Shape" sketch:type="MSShapeGroup"></path>
        </g>
        <g id="google-plus3" sketch:type="MSLayerGroup" transform="translate(7290.000000, 1270.000000)" fill="#399FD3">
            <path d="M0.403,434.832 C0.281,433.566 0.177,432.297 0.111,431.017 C0.176,432.297 0.281,433.566 0.403,434.832 L0.403,434.832 Z M117.954,282.574 C163.959,283.943 194.821,236.225 186.885,175.975 C178.938,115.735 135.187,67.391 89.181,66.014 C43.168,64.649 12.311,110.755 20.255,171.014 C28.196,231.248 71.931,281.201 117.954,282.574 L117.954,282.574 Z M512,128 L512,85.345 C512,38.405 473.609,0 426.671,0 L85.343,0 C39.205,0 1.337,37.116 0.061,82.963 C29.242,57.27 69.723,35.805 111.498,35.805 L290.12,35.805 L250.146,69.614 L193.512,69.614 C231.077,84.016 251.09,127.676 251.09,172.475 C251.09,210.099 230.185,242.452 200.646,265.459 C171.824,287.91 166.36,297.313 166.36,316.398 C166.36,332.687 197.233,360.398 213.376,371.792 C260.567,405.061 275.834,435.948 275.834,487.52 C275.834,495.734 274.813,503.935 272.801,512 L426.672,512 C473.609,512 512,473.625 512,426.655 L512,160.001 L416,160.001 L416,256 L384,256 L384,160 L288.001,160 L288.001,128 L384,128 L384,32 L416,32 L416,128 L512,128 L512,128 Z M92.943,382.968 C103.75,382.968 113.654,382.673 123.911,382.673 C110.338,369.506 99.598,353.373 99.598,333.483 C99.598,321.679 103.38,310.315 108.665,300.223 C103.274,300.608 97.77,300.72 92.102,300.72 C54.924,300.72 23.349,288.682 0,268.793 L0,302.414 L0.003,403.279 C26.723,390.592 58.447,382.968 92.943,382.968 L92.943,382.968 Z M1.71,443.629 C1.154,440.9 0.727,438.126 0.439,435.312 C0.726,438.126 1.154,440.9 1.71,443.629 L1.71,443.629 Z M227.725,476.423 C220.196,447.02 193.498,432.441 156.281,406.639 C142.745,402.273 127.834,399.702 111.834,399.535 C67.025,399.053 25.28,417.006 1.726,443.721 C9.686,482.574 44.243,512 85.343,512 L228.565,512 C229.473,506.436 229.913,500.684 229.913,494.784 C229.913,488.517 229.146,482.388 227.725,476.423 L227.725,476.423 Z" id="Shape" sketch:type="MSShapeGroup"></path>
        </g>
        <g id="facebook2" sketch:type="MSLayerGroup" transform="translate(8260.000000, 1270.000000)" fill="#399FD3">
            <path d="M426.672,0 L85.342,0 C38.406,0 0,38.407 0,85.344 L0,426.657 C0,473.626 38.406,512 85.342,512 L426.672,511.999 C473.61,511.999 512,473.626 512,426.655 L512,85.344 C512,38.407 473.609,0 426.672,0 L426.672,0 Z M435.296,256 L352,256 L352,480 L256,480 L256,256 L209.737,256 L209.737,182.718 L256,182.718 L256,135.125 C256,70.454 283.896,32 359.935,32 L447.557,32 L447.557,111.285 L375.992,111.285 C354.751,111.25 352.116,122.361 352.116,143.041 L352,182.718 L448,182.718 L435.296,256 L435.296,256 Z" id="Shape" sketch:type="MSShapeGroup"></path>
        </g>
    </g>
</svg>